<svg width="236" height="114" viewBox="0 0 236 114" fill="none" xmlns="http://www.w3.org/2000/svg">
<path d="M121.416 37.5737C121.443 37.6107 121.457 37.6616 121.457 37.7264C121.457 37.8097 121.425 37.8838 121.36 37.9485C121.305 38.0133 121.231 38.0457 121.139 38.0457H119.712C119.601 38.0457 119.518 38.0272 119.463 37.9902C119.408 37.9439 119.352 37.8838 119.297 37.8097L116.915 33.992H115.599V37.7125C115.599 37.8051 115.567 37.8838 115.502 37.9485C115.447 38.0133 115.369 38.0457 115.267 38.0457H114.007C113.914 38.0457 113.836 38.0133 113.771 37.9485C113.707 37.8838 113.674 37.8051 113.674 37.7125V28.675C113.674 28.5732 113.702 28.4899 113.758 28.4251C113.822 28.3603 113.905 28.3279 114.007 28.3279H115.267C115.369 28.3279 115.447 28.3603 115.502 28.4251C115.567 28.4899 115.599 28.5732 115.599 28.675V32.2567L116.818 32.2706L119.061 28.5778C119.154 28.4112 119.32 28.3279 119.56 28.3279H120.931C121.023 28.3279 121.092 28.3557 121.139 28.4112C121.194 28.4667 121.222 28.5361 121.222 28.6194C121.222 28.6565 121.203 28.712 121.166 28.786L118.549 33.0202L121.416 37.5737Z" fill="white"/>
<path d="M126.176 38.1846C124.921 38.1846 123.942 37.8653 123.241 37.2267C122.539 36.5881 122.17 35.6394 122.133 34.3807C122.124 34.1123 122.119 33.719 122.119 33.2007C122.119 32.6732 122.124 32.2752 122.133 32.0068C122.17 30.7759 122.548 29.8319 123.268 29.1747C123.988 28.5176 124.958 28.1891 126.176 28.1891C127.395 28.1891 128.365 28.5176 129.085 29.1747C129.814 29.8319 130.197 30.7759 130.234 32.0068C130.252 32.5436 130.262 32.9416 130.262 33.2007C130.262 33.4506 130.252 33.8439 130.234 34.3807C130.188 35.6394 129.814 36.5881 129.112 37.2267C128.411 37.8653 127.432 38.1846 126.176 38.1846ZM126.176 36.5881C126.795 36.5881 127.289 36.403 127.658 36.0327C128.028 35.6533 128.226 35.0795 128.254 34.3113C128.272 33.756 128.281 33.3812 128.281 33.1868C128.281 32.9739 128.272 32.5991 128.254 32.0623C128.226 31.2942 128.028 30.725 127.658 30.3548C127.289 29.9753 126.795 29.7856 126.176 29.7856C125.567 29.7856 125.078 29.9753 124.709 30.3548C124.339 30.725 124.141 31.2942 124.113 32.0623C124.104 32.3307 124.099 32.7056 124.099 33.1868C124.099 33.6588 124.104 34.0337 124.113 34.3113C124.141 35.0795 124.335 35.6533 124.695 36.0327C125.064 36.403 125.558 36.5881 126.176 36.5881Z" fill="white"/>
<path d="M132.426 38.0457C132.325 38.0457 132.242 38.018 132.177 37.9624C132.112 37.8976 132.08 37.8144 132.08 37.7125V28.675C132.08 28.5732 132.112 28.4899 132.177 28.4251C132.242 28.3603 132.325 28.3279 132.426 28.3279H133.52C133.714 28.3279 133.853 28.4158 133.936 28.5917L136.609 33.5894L139.309 28.5917C139.401 28.4158 139.54 28.3279 139.724 28.3279H140.805C140.906 28.3279 140.989 28.3603 141.054 28.4251C141.118 28.4899 141.151 28.5732 141.151 28.675V37.7125C141.151 37.8144 141.118 37.8976 141.054 37.9624C140.989 38.018 140.906 38.0457 140.805 38.0457H139.641C139.549 38.0457 139.471 38.0133 139.406 37.9485C139.341 37.8838 139.309 37.8051 139.309 37.7125V31.7014L137.37 35.408C137.25 35.6116 137.093 35.7134 136.899 35.7134H136.332C136.138 35.7134 135.981 35.6116 135.861 35.408L133.922 31.7014V37.7125C133.922 37.8051 133.89 37.8838 133.825 37.9485C133.77 38.0133 133.691 38.0457 133.59 38.0457H132.426Z" fill="white"/>
<path d="M143.637 38.0457C143.545 38.0457 143.466 38.0133 143.402 37.9485C143.337 37.8838 143.305 37.8051 143.305 37.7125V28.675C143.305 28.5732 143.333 28.4899 143.388 28.4251C143.453 28.3603 143.536 28.3279 143.637 28.3279H150.894C150.995 28.3279 151.078 28.3603 151.143 28.4251C151.208 28.4899 151.24 28.5732 151.24 28.675V37.7125C151.24 37.8144 151.208 37.8976 151.143 37.9624C151.078 38.018 150.995 38.0457 150.894 38.0457H149.647C149.555 38.0457 149.477 38.0133 149.412 37.9485C149.347 37.8838 149.315 37.8051 149.315 37.7125V30.0632H145.23V37.7125C145.23 37.8051 145.197 37.8838 145.133 37.9485C145.077 38.0133 144.999 38.0457 144.897 38.0457H143.637Z" fill="white"/>
<path d="M153.726 38.0457C153.633 38.0457 153.555 38.0133 153.49 37.9485C153.426 37.8838 153.393 37.8051 153.393 37.7125V28.6611C153.393 28.5593 153.426 28.4806 153.49 28.4251C153.555 28.3603 153.633 28.3279 153.726 28.3279H154.986C155.088 28.3279 155.166 28.3603 155.221 28.4251C155.286 28.4806 155.318 28.5593 155.318 28.6611V31.8402H157.105C158.213 31.8402 159.062 32.0993 159.653 32.6176C160.253 33.1359 160.553 33.8948 160.553 34.8944C160.553 35.496 160.419 36.0374 160.151 36.5186C159.893 36.9906 159.505 37.3655 158.988 37.6431C158.471 37.9115 157.843 38.0457 157.105 38.0457H153.726ZM157.022 36.5048C157.511 36.5048 157.89 36.3567 158.157 36.0605C158.434 35.7644 158.573 35.371 158.573 34.8805C158.573 33.8809 158.056 33.3812 157.022 33.3812H155.318V36.5048H157.022Z" fill="white"/>
<path d="M169.996 38.1846C168.712 38.1846 167.738 37.856 167.074 37.1989C166.409 36.5418 166.04 35.644 165.966 34.5057C165.947 34.265 165.938 34.0938 165.938 33.992H164.055V37.7125C164.055 37.8051 164.022 37.8838 163.958 37.9485C163.902 38.0133 163.824 38.0457 163.722 38.0457H162.462C162.37 38.0457 162.291 38.0133 162.227 37.9485C162.162 37.8838 162.13 37.8051 162.13 37.7125V28.6611C162.13 28.5593 162.162 28.4806 162.227 28.4251C162.291 28.3603 162.37 28.3279 162.462 28.3279H163.722C163.824 28.3279 163.902 28.3603 163.958 28.4251C164.022 28.4806 164.055 28.5593 164.055 28.6611V32.2567H165.952L165.966 31.8124C166.058 30.7203 166.437 29.8457 167.101 29.1886C167.775 28.5223 168.74 28.1891 169.996 28.1891C171.297 28.1891 172.285 28.5408 172.959 29.2442C173.642 29.9383 174.007 30.8592 174.053 32.0068C174.072 32.5436 174.081 32.9416 174.081 33.2007C174.081 33.4506 174.072 33.8439 174.053 34.3807C174.007 35.5561 173.647 36.4862 172.973 37.1711C172.299 37.8467 171.307 38.1846 169.996 38.1846ZM169.996 36.5881C170.623 36.5881 171.117 36.4076 171.477 36.0466C171.847 35.6857 172.045 35.1211 172.073 34.353C172.091 33.7977 172.1 33.4089 172.1 33.1868C172.1 32.9462 172.091 32.5575 172.073 32.0207C172.045 31.2525 171.847 30.6879 171.477 30.327C171.108 29.9661 170.614 29.7856 169.996 29.7856C169.377 29.7856 168.883 29.9661 168.514 30.327C168.154 30.6879 167.96 31.2525 167.932 32.0207C167.923 32.2891 167.918 32.6778 167.918 33.1868C167.918 33.6866 167.923 34.0753 167.932 34.353C167.96 35.1211 168.154 35.6857 168.514 36.0466C168.883 36.4076 169.377 36.5881 169.996 36.5881Z" fill="white"/>
<path d="M178.362 38.0457C178.27 38.0457 178.191 38.0133 178.126 37.9485C178.062 37.8838 178.029 37.8051 178.029 37.7125V30.0355H175.468C175.375 30.0355 175.297 30.0031 175.232 29.9383C175.168 29.8735 175.135 29.7948 175.135 29.7023V28.675C175.135 28.5732 175.163 28.4899 175.218 28.4251C175.283 28.3603 175.366 28.3279 175.468 28.3279H182.53C182.632 28.3279 182.715 28.3603 182.779 28.4251C182.844 28.4899 182.876 28.5732 182.876 28.675V29.7023C182.876 29.7948 182.844 29.8735 182.779 29.9383C182.715 30.0031 182.632 30.0355 182.53 30.0355H179.982V37.7125C179.982 37.8051 179.95 37.8838 179.885 37.9485C179.821 38.0133 179.737 38.0457 179.636 38.0457H178.362Z" fill="white"/>
<path d="M184.614 38.0457C184.522 38.0457 184.443 38.0133 184.378 37.9485C184.314 37.8838 184.282 37.8051 184.282 37.7125V28.675C184.282 28.5732 184.309 28.4899 184.365 28.4251C184.429 28.3603 184.512 28.3279 184.614 28.3279H190.707C190.809 28.3279 190.892 28.3603 190.956 28.4251C191.021 28.4899 191.053 28.5732 191.053 28.675V29.5912C191.053 29.693 191.021 29.7763 190.956 29.8411C190.892 29.8966 190.809 29.9244 190.707 29.9244H186.151V32.3816H190.402C190.504 32.3816 190.587 32.414 190.652 32.4788C190.716 32.5343 190.749 32.613 190.749 32.7148V33.5755C190.749 33.6773 190.716 33.7606 190.652 33.8254C190.587 33.8809 190.504 33.9087 190.402 33.9087H186.151V36.4492H190.818C190.919 36.4492 191.003 36.4816 191.067 36.5464C191.132 36.6112 191.164 36.6945 191.164 36.7963V37.7125C191.164 37.8144 191.132 37.8976 191.067 37.9624C191.003 38.018 190.919 38.0457 190.818 38.0457H184.614Z" fill="white"/>
<path d="M193.228 38.0457C193.136 38.0457 193.058 38.0133 192.993 37.9485C192.928 37.8838 192.896 37.8051 192.896 37.7125V28.675C192.896 28.5732 192.924 28.4899 192.979 28.4251C193.044 28.3603 193.127 28.3279 193.228 28.3279H196.94C198.048 28.3279 198.92 28.5917 199.557 29.1192C200.194 29.6375 200.513 30.401 200.513 31.4098C200.513 32.4186 200.194 33.1822 199.557 33.7005C198.929 34.2095 198.057 34.464 196.94 34.464H194.876V37.7125C194.876 37.8051 194.844 37.8838 194.779 37.9485C194.724 38.0133 194.646 38.0457 194.544 38.0457H193.228ZM196.871 32.923C197.406 32.923 197.817 32.7981 198.103 32.5482C198.389 32.2891 198.532 31.9096 198.532 31.4098C198.532 30.9286 198.394 30.5537 198.117 30.2854C197.84 30.0077 197.424 29.8689 196.871 29.8689H194.849V32.923H196.871Z" fill="white"/>
<path d="M202.357 38.0457C202.265 38.0457 202.186 38.0133 202.122 37.9485C202.057 37.8838 202.025 37.8051 202.025 37.7125V28.675C202.025 28.5732 202.052 28.4899 202.108 28.4251C202.172 28.3603 202.255 28.3279 202.357 28.3279H203.617C203.719 28.3279 203.797 28.3603 203.853 28.4251C203.917 28.4899 203.949 28.5732 203.949 28.675V32.2567H208.035V28.675C208.035 28.5732 208.062 28.4899 208.118 28.4251C208.182 28.3603 208.266 28.3279 208.367 28.3279H209.613C209.715 28.3279 209.798 28.3603 209.863 28.4251C209.927 28.4899 209.96 28.5732 209.96 28.675V37.7125C209.96 37.8144 209.927 37.8976 209.863 37.9624C209.798 38.018 209.715 38.0457 209.613 38.0457H208.367C208.275 38.0457 208.196 38.0133 208.132 37.9485C208.067 37.8838 208.035 37.8051 208.035 37.7125V33.992H203.949V37.7125C203.949 37.8051 203.917 37.8838 203.853 37.9485C203.797 38.0133 203.719 38.0457 203.617 38.0457H202.357Z" fill="white"/>
<path d="M212.446 38.0457C212.353 38.0457 212.275 38.0133 212.21 37.9485C212.146 37.8838 212.113 37.8051 212.113 37.7125V28.6611C212.113 28.5593 212.146 28.4806 212.21 28.4251C212.275 28.3603 212.353 28.3279 212.446 28.3279H213.706C213.807 28.3279 213.886 28.3603 213.941 28.4251C214.006 28.4806 214.038 28.5593 214.038 28.6611V31.8402H215.575C216.683 31.8402 217.533 32.0993 218.123 32.6176C218.723 33.1359 219.023 33.8948 219.023 34.8944C219.023 35.496 218.89 36.0374 218.622 36.5186C218.363 36.9906 217.976 37.3655 217.459 37.6431C216.942 37.9115 216.314 38.0457 215.575 38.0457H212.446ZM220.547 38.0457C220.454 38.0457 220.376 38.0133 220.311 37.9485C220.247 37.8838 220.214 37.8051 220.214 37.7125V28.6611C220.214 28.5593 220.247 28.4806 220.311 28.4251C220.376 28.3603 220.454 28.3279 220.547 28.3279H221.849C221.95 28.3279 222.029 28.3603 222.084 28.4251C222.149 28.4806 222.181 28.5593 222.181 28.6611V37.7125C222.181 37.8051 222.149 37.8838 222.084 37.9485C222.029 38.0133 221.95 38.0457 221.849 38.0457H220.547ZM215.506 36.5048C215.986 36.5048 216.36 36.3567 216.628 36.0605C216.905 35.7644 217.043 35.371 217.043 34.8805C217.043 33.8809 216.531 33.3812 215.506 33.3812H214.038V36.5048H215.506Z" fill="white"/>
<path d="M224.684 38.0457C224.583 38.0457 224.5 38.0133 224.435 37.9485C224.38 37.8838 224.352 37.8005 224.352 37.6987V28.675C224.352 28.5732 224.384 28.4899 224.449 28.4251C224.514 28.3603 224.597 28.3279 224.698 28.3279H225.945C226.046 28.3279 226.125 28.3603 226.18 28.4251C226.245 28.4899 226.277 28.5732 226.277 28.675V35.0471L230.833 28.55C230.935 28.4019 231.069 28.3279 231.235 28.3279H232.384C232.486 28.3279 232.564 28.3603 232.62 28.4251C232.684 28.4899 232.716 28.5732 232.716 28.675V37.7125C232.716 37.8051 232.684 37.8838 232.62 37.9485C232.564 38.0133 232.486 38.0457 232.384 38.0457H231.138C231.036 38.0457 230.953 38.018 230.889 37.9624C230.824 37.8976 230.792 37.8144 230.792 37.7125V31.4654L226.249 37.8236C226.194 37.8976 226.139 37.9532 226.083 37.9902C226.028 38.0272 225.949 38.0457 225.848 38.0457H224.684ZM228.562 27.7726C227.759 27.7726 227.173 27.6014 226.803 27.2589C226.434 26.9072 226.249 26.4584 226.249 25.9123C226.249 25.8383 226.272 25.7781 226.319 25.7319C226.365 25.6763 226.429 25.6486 226.512 25.6486H227.316C227.399 25.6486 227.463 25.6763 227.51 25.7319C227.556 25.7781 227.579 25.8383 227.579 25.9123C227.579 26.4399 227.907 26.7036 228.562 26.7036C229.208 26.7036 229.531 26.4399 229.531 25.9123C229.531 25.8383 229.554 25.7781 229.601 25.7319C229.647 25.6763 229.711 25.6486 229.794 25.6486H230.598C230.681 25.6486 230.745 25.6763 230.792 25.7319C230.838 25.7781 230.861 25.8383 230.861 25.9123C230.861 26.4584 230.676 26.9072 230.307 27.2589C229.938 27.6014 229.356 27.7726 228.562 27.7726Z" fill="white"/>
<path d="M117.413 54.8437C116.139 54.8437 115.152 54.5151 114.45 53.858C113.758 53.2009 113.388 52.2754 113.342 51.0815C113.333 50.8316 113.328 50.4244 113.328 49.8598C113.328 49.286 113.333 48.8695 113.342 48.6104C113.388 47.4257 113.762 46.5049 114.464 45.8478C115.175 45.1814 116.158 44.8482 117.413 44.8482C118.235 44.8482 118.951 44.9917 119.56 45.2786C120.169 45.5562 120.64 45.9403 120.972 46.4308C121.305 46.9121 121.48 47.4581 121.499 48.069V48.0967C121.499 48.1708 121.466 48.2356 121.402 48.2911C121.346 48.3374 121.282 48.3605 121.208 48.3605H119.892C119.782 48.3605 119.698 48.3374 119.643 48.2911C119.588 48.2448 119.541 48.1569 119.505 48.0273C119.357 47.4443 119.112 47.037 118.771 46.8057C118.429 46.565 117.972 46.4447 117.4 46.4447C116.07 46.4447 115.378 47.1897 115.322 48.6798C115.313 48.9297 115.309 49.3138 115.309 49.8321C115.309 50.3503 115.313 50.7437 115.322 51.0121C115.378 52.5021 116.07 53.2472 117.4 53.2472C117.972 53.2472 118.429 53.1269 118.771 52.8862C119.121 52.6456 119.366 52.2384 119.505 51.6646C119.532 51.535 119.574 51.4471 119.629 51.4008C119.694 51.3545 119.782 51.3314 119.892 51.3314H121.208C121.291 51.3314 121.36 51.3591 121.416 51.4147C121.48 51.4702 121.508 51.5396 121.499 51.6229C121.48 52.2338 121.305 52.7844 120.972 53.2749C120.64 53.7562 120.169 54.1403 119.56 54.4272C118.951 54.7049 118.235 54.8437 117.413 54.8437Z" fill="white"/>
<path d="M123.473 54.7049C123.381 54.7049 123.303 54.6725 123.238 54.6077C123.173 54.5429 123.141 54.4642 123.141 54.3717V45.3341C123.141 45.2323 123.169 45.149 123.224 45.0842C123.289 45.0194 123.372 44.987 123.473 44.987H129.567C129.668 44.987 129.751 45.0194 129.816 45.0842C129.88 45.149 129.913 45.2323 129.913 45.3341V46.2503C129.913 46.3522 129.88 46.4354 129.816 46.5002C129.751 46.5558 129.668 46.5835 129.567 46.5835H125.011V49.0408H129.262C129.363 49.0408 129.447 49.0731 129.511 49.1379C129.576 49.1935 129.608 49.2721 129.608 49.3739V50.2347C129.608 50.3365 129.576 50.4198 129.511 50.4845C129.447 50.5401 129.363 50.5678 129.262 50.5678H125.011V53.1084H129.677C129.779 53.1084 129.862 53.1407 129.927 53.2055C129.991 53.2703 130.024 53.3536 130.024 53.4554V54.3717C130.024 54.4735 129.991 54.5568 129.927 54.6216C129.862 54.6771 129.779 54.7049 129.677 54.7049H123.473Z" fill="white"/>
<path d="M132.088 54.7049C131.996 54.7049 131.917 54.6725 131.853 54.6077C131.788 54.5429 131.756 54.4642 131.756 54.3717V45.3341C131.756 45.2323 131.783 45.149 131.839 45.0842C131.903 45.0194 131.986 44.987 132.088 44.987H135.799C136.907 44.987 137.78 45.2508 138.417 45.7783C139.054 46.2966 139.372 47.0602 139.372 48.069C139.372 49.0778 139.054 49.8413 138.417 50.3596C137.789 50.8686 136.916 51.1231 135.799 51.1231H133.736V54.3717C133.736 54.4642 133.704 54.5429 133.639 54.6077C133.584 54.6725 133.505 54.7049 133.404 54.7049H132.088ZM135.73 49.5822C136.266 49.5822 136.676 49.4572 136.963 49.2073C137.249 48.9482 137.392 48.5687 137.392 48.069C137.392 47.5877 137.253 47.2129 136.976 46.9445C136.699 46.6668 136.284 46.528 135.73 46.528H133.708V49.5822H135.73Z" fill="white"/>
<path d="M141.216 54.7049C141.124 54.7049 141.046 54.6725 140.981 54.6077C140.916 54.5429 140.884 54.4642 140.884 54.3717V45.3341C140.884 45.2323 140.912 45.149 140.967 45.0842C141.032 45.0194 141.115 44.987 141.216 44.987H145.232C146.313 44.987 147.116 45.2277 147.642 45.7089C148.177 46.1809 148.445 46.8288 148.445 47.6525C148.445 48.1338 148.325 48.5456 148.085 48.888C147.854 49.2212 147.582 49.4619 147.268 49.6099C147.656 49.7858 147.979 50.0727 148.237 50.4707C148.505 50.8686 148.639 51.3221 148.639 51.8312C148.639 52.6919 148.348 53.386 147.767 53.9135C147.194 54.4411 146.386 54.7049 145.343 54.7049H141.216ZM144.983 48.9713C145.463 48.9713 145.828 48.8556 146.077 48.6243C146.326 48.3929 146.451 48.0829 146.451 47.6941C146.451 47.2962 146.326 46.9908 146.077 46.7779C145.828 46.5558 145.463 46.4447 144.983 46.4447H142.809V48.9713H144.983ZM145.122 53.2333C145.602 53.2333 145.976 53.1037 146.243 52.8446C146.511 52.5762 146.645 52.2384 146.645 51.8312C146.645 51.4147 146.511 51.0769 146.243 50.8177C145.976 50.5493 145.602 50.4151 145.122 50.4151H142.809V53.2333H145.122Z" fill="white"/>
<path d="M150.71 54.7049C150.608 54.7049 150.525 54.6725 150.461 54.6077C150.405 54.5429 150.378 54.4596 150.378 54.3578V45.3341C150.378 45.2323 150.41 45.149 150.475 45.0842C150.539 45.0194 150.622 44.987 150.724 44.987H151.97C152.072 44.987 152.15 45.0194 152.206 45.0842C152.27 45.149 152.303 45.2323 152.303 45.3341V51.7062L156.859 45.2092C156.96 45.0611 157.094 44.987 157.26 44.987H158.41C158.511 44.987 158.59 45.0194 158.645 45.0842C158.71 45.149 158.742 45.2323 158.742 45.3341V54.3717C158.742 54.4642 158.71 54.5429 158.645 54.6077C158.59 54.6725 158.511 54.7049 158.41 54.7049H157.163C157.062 54.7049 156.979 54.6771 156.914 54.6216C156.849 54.5568 156.817 54.4735 156.817 54.3717V48.1245L152.275 54.4827C152.219 54.5568 152.164 54.6123 152.109 54.6493C152.053 54.6863 151.975 54.7049 151.873 54.7049H150.71Z" fill="white"/>
<path d="M164.638 54.8437C163.364 54.8437 162.376 54.5151 161.675 53.858C160.982 53.2009 160.613 52.2754 160.567 51.0815C160.558 50.8316 160.553 50.4244 160.553 49.8598C160.553 49.286 160.558 48.8695 160.567 48.6104C160.613 47.4257 160.987 46.5049 161.688 45.8478C162.399 45.1814 163.383 44.8482 164.638 44.8482C165.46 44.8482 166.175 44.9917 166.785 45.2786C167.394 45.5562 167.865 45.9403 168.197 46.4308C168.529 46.9121 168.705 47.4581 168.723 48.069V48.0967C168.723 48.1708 168.691 48.2356 168.626 48.2911C168.571 48.3374 168.506 48.3605 168.433 48.3605H167.117C167.006 48.3605 166.923 48.3374 166.868 48.2911C166.812 48.2448 166.766 48.1569 166.729 48.0273C166.581 47.4443 166.337 47.037 165.995 46.8057C165.654 46.565 165.197 46.4447 164.624 46.4447C163.295 46.4447 162.602 47.1897 162.547 48.6798C162.538 48.9297 162.533 49.3138 162.533 49.8321C162.533 50.3503 162.538 50.7437 162.547 51.0121C162.602 52.5021 163.295 53.2472 164.624 53.2472C165.197 53.2472 165.654 53.1269 165.995 52.8862C166.346 52.6456 166.591 52.2384 166.729 51.6646C166.757 51.535 166.798 51.4471 166.854 51.4008C166.918 51.3545 167.006 51.3314 167.117 51.3314H168.433C168.516 51.3314 168.585 51.3591 168.64 51.4147C168.705 51.4702 168.733 51.5396 168.723 51.6229C168.705 52.2338 168.529 52.7844 168.197 53.2749C167.865 53.7562 167.394 54.1403 166.785 54.4272C166.175 54.7049 165.46 54.8437 164.638 54.8437Z" fill="white"/>
<path d="M66.8216 73.6122L63.5902 76.9973C61.4523 75.3048 59.683 74.477 56.9921 74.477C52.532 74.477 48.7231 77.8621 48.7231 86.3619C48.7231 94.9976 51.2665 98.2468 56.1812 98.2468C57.9505 98.2468 59.683 97.8761 61.182 97.0113V88.7833H56.4515L55.8126 84.2987H67.0919V99.754C63.9588 101.669 60.2236 102.867 56.2672 102.867C47.3101 102.867 42.3954 97.1966 42.3954 86.3619C42.3954 75.663 48.9443 69.9059 56.8078 69.9059C61.182 69.9183 64.1799 71.3761 66.8216 73.6122Z" fill="#E7742E"/>
<path d="M92.5498 91.8966H77.4616C77.9162 96.8383 80.1893 98.432 83.3715 98.432C85.5095 98.432 87.2788 97.7525 89.3675 96.2824L91.7757 99.618C89.4167 101.533 86.5047 102.867 82.8678 102.867C75.4097 102.867 71.4042 97.8884 71.4042 90.2535C71.4042 82.8903 75.2745 77.3185 82.0937 77.3185C88.8269 77.3185 92.685 81.8896 92.685 89.5245C92.685 90.3029 92.5867 91.2665 92.5498 91.8966ZM86.9102 87.832C86.9102 83.8539 85.4972 81.4819 82.2289 81.4819C79.5012 81.4819 77.7687 83.3103 77.4616 88.1161H86.9224V87.832H86.9102Z" fill="#E7742E"/>
<path d="M102.761 102.188H96.9365V68.3122L102.761 67.6698V102.188ZM109.174 88.6598L117.947 102.188H111.263L102.994 88.981L111.042 78.0104H117.185L109.174 88.6598Z" fill="#E7742E"/>
<path d="M141.083 90.0681C141.083 97.7031 136.857 102.867 129.767 102.867C122.678 102.867 118.451 98.0243 118.451 90.0681C118.451 82.4826 122.678 77.3185 129.816 77.3185C136.906 77.3185 141.083 82.1614 141.083 90.0681ZM124.582 90.0681C124.582 95.8747 126.351 98.432 129.767 98.432C133.183 98.432 134.952 95.8252 134.952 90.0681C134.952 84.311 133.183 81.7537 129.816 81.7537C126.401 81.7537 124.582 84.3604 124.582 90.0681Z" fill="#E7742E"/>
<path d="M167.905 73.254L164.858 76.8244C163.04 75.3666 161.172 74.5883 159.034 74.5883C154.673 74.5883 151.306 77.788 151.306 86.3372C151.306 94.6517 154.574 98.0368 159.034 98.0368C161.762 98.0368 163.63 96.8508 165.448 95.4794L168.262 99.0498C166.357 101.014 163.077 102.892 158.801 102.892C150.667 102.892 144.978 97.0855 144.978 86.3372C144.978 75.7372 150.974 69.9307 158.703 69.9307C162.72 69.9183 165.313 71.1043 167.905 73.254Z" fill="#E7742E"/>
<path d="M192.553 90.0681C192.553 97.7031 188.326 102.867 181.236 102.867C174.147 102.867 169.92 98.0243 169.92 90.0681C169.92 82.4826 174.147 77.3185 181.286 77.3185C188.363 77.3185 192.553 82.1614 192.553 90.0681ZM176.039 90.0681C176.039 95.8747 177.808 98.432 181.224 98.432C184.64 98.432 186.409 95.8252 186.409 90.0681C186.409 84.311 184.64 81.7537 181.273 81.7537C177.858 81.7537 176.039 84.3604 176.039 90.0681Z" fill="#E7742E"/>
<path d="M210.442 77.6892L209.447 83.3598C208.722 83.1745 208.169 83.088 207.309 83.088C204.397 83.088 202.898 85.2377 201.989 89.3022V102.188H196.165V78.0104H201.215L201.755 82.7668C202.898 79.2952 205.208 77.3679 208.034 77.3679C208.894 77.3679 209.668 77.4544 210.442 77.6892Z" fill="#E7742E"/>
<path d="M235.36 90.031C235.36 97.4436 231.957 102.88 225.862 102.88C223.405 102.88 221.316 102.015 219.817 100.223V111.515L213.993 112.158V78.0103H219.08L219.399 80.9876C221.304 78.4674 223.86 77.3308 226.452 77.3308C232.718 77.3184 235.36 82.2972 235.36 90.031ZM229.266 90.0681C229.266 83.9403 227.632 81.7042 224.72 81.7042C222.668 81.7042 220.948 83.1249 219.805 84.9904V95.8746C220.935 97.5671 222.397 98.3949 224.216 98.3949C227.398 98.3949 229.266 95.924 229.266 90.0681Z" fill="#E7742E"/>
<path d="M98.5541 31.6656C98.505 29.3271 98.2101 27.0011 97.7309 24.6997C97.0919 21.6065 96.0352 18.6989 94.1428 16.1502C91.7836 12.9828 88.9451 10.3597 85.6889 8.18213C82.9979 6.37572 80.1717 4.81675 77.2103 3.50525C74.6053 2.35458 71.9143 1.439 69.125 0.857485C67.3187 0.486303 65.4878 0.2636 63.6569 0.176991C62.2561 0.115127 60.843 -0.0704672 59.4545 0.0285146C58.152 0.115124 56.8618 0.152245 55.5593 0.263599C53.2738 0.461563 51.0743 0.981209 48.9239 1.77306C46.2329 2.76288 43.6033 3.90117 41.072 5.27455C37.9632 6.95724 35.1371 9.03585 32.5812 11.498C30.1851 13.8117 28.0716 16.3852 26.081 19.0578C25.6386 19.664 25.2086 20.2827 24.7908 20.9013C24.5696 21.2354 24.287 21.4086 23.8938 21.3838C23.6357 21.3715 23.3777 21.3962 23.1319 21.3591C21.5345 21.124 19.9248 21.2477 18.3151 21.2106C16.8037 21.1735 15.3046 21.322 13.8301 21.6932C11.1268 22.3737 8.59553 23.4377 6.40831 25.2565C5.86765 25.7143 5.68333 26.2339 5.83079 26.9021C5.99053 27.6073 6.28543 28.2136 6.78923 28.7456C7.63708 29.6241 8.60781 30.3417 9.61541 30.9974C9.83659 31.1459 10.1192 31.2201 10.2052 31.5171C10.0086 31.7274 9.79973 31.6656 9.60312 31.6903C8.10402 31.8759 6.6172 32.0862 5.17953 32.5935C4.34396 32.8905 3.61899 33.373 2.99231 33.9916C2.86944 34.1154 2.70969 34.2638 2.808 34.4618C2.91859 34.6721 3.12748 34.5731 3.28722 34.5237C4.22109 34.2515 5.17953 34.103 6.13798 33.9421C6.74008 33.8432 7.32989 33.8555 8.018 33.905C7.8214 34.1525 7.64937 34.1649 7.47734 34.202C6.60491 34.4123 5.76935 34.7216 4.93378 35.0557C2.82029 35.9094 1.08771 37.1962 0.190708 39.4356C0.12927 39.5841 0.0678317 39.7202 0.0186807 39.8687C-0.0181826 39.9677 -0.00589523 40.0914 0.104695 40.1285C0.166133 40.1532 0.264433 40.1285 0.313584 40.0914C0.633065 39.8316 0.952547 39.5717 1.25974 39.2995C3.01689 37.7529 5.03208 36.726 7.30532 36.2682C7.87055 36.1569 8.44807 35.9589 9.06246 36.0702C8.37435 36.4909 7.73538 36.9487 7.07185 37.3818C5.73248 38.2602 4.84776 39.5099 4.13507 40.908C4.04906 41.0812 3.85246 41.3039 4.02448 41.4771C4.23338 41.6751 4.36854 41.3905 4.54057 41.3039C4.60201 41.2668 4.66345 41.2173 4.72489 41.1678C7.26845 39.1511 9.98404 37.4931 13.056 36.4662C13.7195 36.2435 14.3953 36.0084 15.0957 35.8352C15.1203 36.1816 14.9114 36.3301 14.7886 36.5033C14.0636 37.5426 14.0267 38.6809 14.3093 39.8687C14.3462 40.0419 14.3708 40.2646 14.6042 40.2646C14.8254 40.277 14.8869 40.0543 14.9483 39.8934C15.747 38.0004 17.1724 36.7631 18.9295 35.8599C20.1214 35.2413 21.3748 34.8082 22.6159 34.3381C23.3285 34.0782 23.5251 33.7442 23.5129 32.9894C23.5129 32.8039 23.476 32.6306 23.4637 32.445C23.4514 32.1852 23.6112 32.0739 23.8323 32.0367C24.0781 31.9996 24.2133 32.1234 24.2624 32.3708C24.287 32.4945 24.287 32.6306 24.3116 32.7544C24.459 33.9916 24.631 35.2289 25.0365 36.4167C25.442 37.6045 25.9458 38.7304 26.5725 39.8192C26.9166 40.4007 26.8305 40.5368 26.167 40.5616C25.3192 40.5863 24.4959 40.7595 23.6726 40.9204C23.0213 41.0565 22.3701 41.2297 21.8049 41.6009C21.0799 42.071 20.4163 42.6402 20.3303 43.5805C20.2443 44.4342 20.2443 45.3003 20.4041 46.154C20.7973 48.2945 21.5837 50.2989 22.3824 52.3033C22.8247 53.4168 23.3285 54.4932 23.7955 55.5944C23.9798 56.0398 23.8938 56.1636 23.4391 56.1883C22.8985 56.2254 22.3701 56.0646 21.8663 55.9037C20.7481 55.5449 19.6299 55.1614 18.5117 54.8273C16.9881 54.3695 15.4644 53.9365 13.8547 53.9983C12.8102 54.0354 11.9255 54.4314 11.1637 55.1366C11.0039 55.2851 10.7336 55.4336 10.8073 55.6934C10.8933 55.978 11.2005 55.8666 11.4094 55.879C12.073 55.8914 12.7365 55.8666 13.4 55.879C14.3953 55.9037 15.3169 56.1883 16.1279 56.7822C16.2631 56.8812 16.4597 56.943 16.4105 57.1905C16.1648 57.339 15.8822 57.3637 15.5995 57.3884C14.6534 57.4627 13.7195 57.5493 12.7734 57.5864C11.8026 57.6235 10.8319 57.6112 9.86117 57.6112C9.39423 57.6112 8.95187 57.6854 8.53409 57.9452C7.53878 58.5639 7.03498 59.5537 6.60491 60.593C6.56805 60.692 6.55576 60.8033 6.65406 60.8776C6.74008 60.9518 6.85067 60.9394 6.93668 60.8899C7.07185 60.8281 7.20701 60.7538 7.34218 60.6796C8.25147 60.1352 9.23449 59.7888 10.2667 59.5784C11.9132 59.232 13.5721 59.3062 15.2186 59.3804C15.2555 59.3804 15.2801 59.4547 15.3415 59.5165C14.9852 59.8877 14.5428 60.1476 14.1373 60.4445C12.7365 61.4467 11.3848 62.5231 10.1929 63.7852C9.1239 64.9111 9.65227 65.9999 10.451 66.8783C10.6353 67.0763 10.8196 67.0516 10.9302 66.7794C11.0408 66.5195 11.1022 66.2349 11.2128 65.9751C11.7043 64.7378 12.4785 63.7852 13.7318 63.3026C16.2139 62.3499 18.8067 61.954 21.4362 61.6818C21.8663 61.6323 22.2964 61.5704 22.7264 61.5457C23.2302 61.5209 23.3285 61.6323 23.2425 62.1272C23.218 62.2509 23.1934 62.387 23.1565 62.5107C22.8985 63.3645 23.1319 64.1192 23.6357 64.7873C23.9429 65.1956 24.3361 65.5421 24.6925 65.9132C24.7785 65.9999 24.8891 66.0988 25.0242 66.037C25.2086 65.9504 25.1594 65.7771 25.1348 65.6287C24.7662 63.5006 25.6141 61.8921 27.2115 60.5806C27.7276 60.1599 28.3419 59.8506 28.772 59.3186C29.7427 58.1061 30.2834 56.7327 30.2588 55.149C30.2343 53.3673 29.8902 51.6351 29.5339 49.9029C29.3864 49.1853 29.4601 49.0987 30.1605 49.2967C30.2343 49.3214 30.308 49.3462 30.3817 49.3709C33.3431 50.2741 36.329 51.0536 39.3886 51.598C42.0796 52.0806 44.7952 52.3775 47.5231 52.4394C48.3218 52.4517 49.1082 52.328 49.8946 52.3156C51.4306 52.3033 52.9543 52.1177 54.4657 51.9445C57.7957 51.5609 61.0765 50.9546 64.3328 50.1257C66.0162 49.705 67.6996 49.2719 69.3584 48.7275C69.9974 48.5172 70.108 48.5914 70.1203 49.2472C70.1326 50.1009 70.1326 50.967 70.108 51.8207C70.0957 52.427 69.9851 52.5383 69.4322 52.6868C69.2847 52.7239 69.1373 52.7487 68.9775 52.7858C66.0285 53.4044 63.0794 54.0354 60.1795 54.8892C55.9279 56.1264 51.7132 57.475 47.646 59.2443C44.5249 60.593 41.3792 61.9045 38.5039 63.7852C36.3658 65.1833 34.2892 66.6432 32.4092 68.3631C30.136 70.4417 28.2805 72.8791 26.8428 75.6506C25.7492 77.7663 24.9997 80.0058 24.5942 82.3442C24.0658 85.425 24.1887 88.5182 24.6802 91.599C25.1471 94.5809 26.0687 97.4018 27.4941 100.062C28.2928 101.559 29.2267 102.945 30.2957 104.232C30.8364 104.887 31.4753 105.469 32.0774 106.063C33.7485 107.733 35.6163 109.144 37.7421 110.146C40.814 111.581 43.9474 112.818 47.3142 113.326C60.2409 115.293 68.9284 112.769 72.9219 108.191C73.2414 107.832 72.799 107.288 72.2461 107.461C70.4521 108.055 69.4199 109.23 64.1116 110.579C58.8033 111.927 51.7993 111.197 50.3862 110.962C47.5231 110.492 44.7707 109.614 42.1411 108.389C40.0645 107.424 38.1107 106.261 36.3167 104.813C35.1985 103.898 34.2155 102.833 33.3185 101.695C31.6842 99.6413 30.308 97.4266 29.4478 94.9149C28.2928 91.5248 28.1208 88.0481 28.6614 84.5218C29.1161 81.6142 30.222 78.9912 31.8317 76.5538C33.2448 74.4257 34.965 72.5821 36.8819 70.9242C38.9586 69.1425 41.2072 67.6083 43.6156 66.3339C46.7613 64.6636 50.1158 63.5377 53.4827 62.5107C58.8156 60.8775 64.2713 59.7393 69.7762 58.8361C70.7838 58.6752 70.7838 58.6752 71.0664 59.7269C71.263 60.4569 71.2016 60.5806 70.4766 60.7786C69.383 61.0631 68.2894 61.323 67.2081 61.6199C65.881 61.9911 64.5416 62.3499 63.2391 62.7829C61.8138 63.2531 61.7769 64.0821 61.8998 65.1338C61.9121 65.2946 61.9489 65.4678 62.1087 65.5297C62.293 65.6039 62.3667 65.4183 62.4527 65.2946C62.9074 64.7131 63.4972 64.4038 64.2099 64.2924C66.5814 63.9212 68.9407 63.4882 71.2753 62.8943C72.0003 62.7087 72.0126 62.7211 72.3444 63.4758C72.6516 64.1687 73.1185 64.676 73.8189 64.9853C74.5684 65.3194 75.3303 65.6039 76.1167 65.8514C77.4315 66.2597 78.7586 66.668 80.0611 67.101C81.8551 67.7073 83.4402 68.6847 84.7673 70.0829C84.9639 70.2808 85.1359 70.7262 85.4677 70.5283C85.7503 70.3551 85.5537 69.9468 85.48 69.6622C85.1605 68.4744 84.4232 67.5959 83.5016 66.8536C82.5678 66.1112 81.5356 65.5544 80.4911 64.9977C80.3068 64.8987 80.0611 64.8616 79.9874 64.5894C80.3191 64.478 80.5772 64.6265 80.8598 64.6389C84.0423 64.8121 87.1265 65.4926 90.1616 66.47C90.3582 66.5319 90.5548 66.6061 90.7514 66.6185C90.948 66.6432 91.0463 66.5071 90.948 66.3215C90.862 66.1731 90.7268 66.037 90.5917 65.9256C90.0756 65.505 89.5349 65.109 88.9574 64.775C87.2863 63.7975 85.4308 63.4387 83.5631 63.0799C82.8504 62.9438 82.1377 62.8448 81.3021 62.7087C81.4987 62.5726 81.5479 62.5108 81.6093 62.4984C83.7474 61.855 85.9223 61.7065 88.1218 61.9169C88.7854 61.9787 89.4489 62.0159 90.1125 62.0653C90.2476 62.0777 90.3828 62.053 90.4197 61.9045C90.4442 61.7931 90.3951 61.6942 90.3091 61.6323C90.1862 61.5333 90.051 61.4591 89.9281 61.3848C89.4366 61.1126 88.896 60.9394 88.343 60.8157C86.1189 60.3208 83.8826 60.3703 81.6339 60.5064C80.356 60.5806 79.0903 60.6796 77.8124 60.7291C77.112 60.7538 76.6697 60.3208 76.5836 59.6032C76.5468 59.2691 76.5714 58.9227 76.6819 58.601C76.8171 58.1803 76.9891 57.772 77.1243 57.3513C77.284 56.8688 77.6158 56.5966 78.095 56.4358C81.1793 55.3593 84.0915 53.9241 86.8685 52.1919C89.8667 50.3236 92.4717 48.0223 94.3886 44.9662C96.3423 41.8607 97.5711 38.4582 98.3452 34.8701C98.5787 33.8555 98.5787 32.742 98.5541 31.6656ZM35.3337 19.6764C35.8252 17.1895 37.0785 15.0243 38.5531 12.9951C40.2242 10.6938 42.3254 8.87501 44.7952 7.5635C47.1422 6.32623 49.5875 5.22506 52.217 4.68066C53.839 4.3466 55.4733 4.03727 57.1444 4.03727C57.8325 4.03727 58.5207 3.91355 59.2088 3.91355C61.9489 3.90118 64.6522 4.24761 67.3187 4.89099C70.4766 5.6581 73.5609 6.69741 76.5222 8.05841C76.6328 8.1079 76.7802 8.12027 76.8171 8.29349C76.5836 8.35536 76.3625 8.25637 76.1536 8.19451C73.6469 7.45215 71.0787 7.00673 68.486 6.7469C67.0484 6.6108 65.5984 6.41284 64.1362 6.66029C63.7184 6.73453 63.276 6.68504 62.8336 6.69741C59.6265 6.78402 56.4809 7.21707 53.3967 8.13265C51.3077 8.75129 49.4769 9.85246 47.8057 11.2629C46.8964 12.0301 45.9994 12.7724 45.2376 13.7127C43.7753 15.5315 43.0258 17.6225 42.8783 19.9486C42.7063 22.8809 43.3699 25.6277 44.8567 28.1641C45.766 29.7107 47.1176 30.7624 48.5553 31.7151C50.3001 32.8657 52.1679 33.7566 54.1093 34.5237C54.2937 34.5979 54.4903 34.6721 54.6746 34.7587C55.2644 35.0186 55.2767 35.1052 54.7729 35.5135C51.0866 38.5201 47.0316 38.8294 42.7186 37.1838C41.7602 36.8126 40.8754 36.3053 40.0153 35.7238C37.9878 34.3752 36.6853 32.4945 35.8375 30.2056C34.5595 26.7412 34.6333 23.215 35.3337 19.6764ZM78.5128 61.6942C78.2302 62.0035 77.8616 61.9911 77.5298 62.0901C77.1612 62.2014 77.112 62.3623 77.3823 62.6345C77.6895 62.9438 78.0705 63.1665 78.4391 63.4016C78.5251 63.4511 78.6234 63.5006 78.648 63.6243C78.562 63.8346 78.3899 63.7233 78.2671 63.6985C77.6158 63.5624 76.9891 63.3397 76.3748 63.0799C76.2273 63.018 76.0676 62.9809 75.9693 63.1541C75.8955 63.2902 76.0061 63.4016 76.0553 63.513C76.2273 63.8965 76.6574 64.045 76.854 64.3914C76.8048 64.4533 76.7925 64.4904 76.7802 64.4904C75.4655 64.3914 74.2244 64.0697 73.4748 62.8819C73.0079 62.1396 72.5533 61.6447 71.5334 62.0901C71.6808 61.6447 71.9757 61.5828 72.1846 61.4591C72.8359 61.0879 73.1062 60.6301 72.9342 59.8011C72.5041 57.772 72.1969 55.7058 72.0617 53.6271C71.9512 51.9692 71.8037 50.3113 71.8406 48.6409C71.8529 48.1708 72.0126 47.8491 72.455 47.6759C73.4748 47.2676 74.4947 46.8345 75.5146 46.4386C75.9815 46.253 76.129 46.352 76.1167 46.884C76.1044 48.6286 76.1904 50.3607 76.0307 52.1053C75.9201 53.4044 75.8587 54.7036 75.6743 55.9903C75.5515 56.8441 75.404 57.6854 75.1705 58.5144C75.1337 58.6628 75.0968 58.8113 75.06 58.9722C74.7528 60.4569 75.0231 60.9147 76.4731 61.3725C77.1366 61.558 77.8247 61.5704 78.5128 61.6942ZM73.0939 44.063C70.747 44.7435 68.3877 45.2384 65.9302 45.1642C65.1069 45.1395 64.2959 45.0281 63.5095 44.8425C61.8752 44.4466 60.4498 43.2959 60.327 41.2297C60.327 41.1554 60.2778 41.0936 60.2286 40.9451C59.0736 41.9473 58.9999 43.7166 60.0075 44.9044C60.8922 45.9561 62.0472 46.5252 63.3252 46.8964C64.1361 47.1315 64.9594 47.2923 65.7827 47.4903C65.9424 47.5274 66.1513 47.4903 66.2496 47.7006C66.2128 47.9481 66.0039 47.9357 65.8442 47.9852C62.7722 48.9008 59.6757 49.6555 56.5055 50.1257C54.7606 50.3855 53.0157 50.6082 51.2586 50.6948C50.0544 50.7567 48.8625 50.8185 47.6706 50.8062C44.5986 50.7938 41.5636 50.4102 38.5776 49.6802C34.2401 48.6162 30.0499 47.1562 25.9827 45.3003C25.7492 45.1889 25.4789 44.9167 25.2209 45.2013C24.9997 45.4611 25.2209 45.7457 25.3314 45.9932C25.7124 46.8345 26.3882 47.4037 27.1009 47.8986C27.8013 48.3811 28.0593 48.9626 27.9979 49.804C27.8873 51.2392 28.1453 52.6621 28.3665 54.0726C28.5631 55.3841 28.4771 56.6708 27.8996 57.8834C27.3466 59.0588 26.4742 59.665 25.1348 59.7516C22.0752 59.9372 19.0278 60.2342 16.0542 61.0384C15.919 61.0755 15.7593 61.1497 15.5995 60.9642C16.1525 60.2094 16.7792 59.5784 17.6639 59.2072C17.8851 59.1206 18.2414 59.0959 18.1923 58.7618C18.1431 58.4277 17.8113 58.4896 17.5656 58.4649C17.4427 58.4525 17.3075 58.4773 17.1724 58.3535C17.2707 57.9947 17.6147 57.9823 17.8728 57.8834C18.6838 57.5617 18.7329 57.339 18.18 56.6832C17.9465 56.3986 17.6147 56.2502 17.3198 56.0398C17.4427 55.7552 17.6393 55.8666 17.7991 55.8914C18.438 56.0027 19.0155 56.2749 19.5562 56.6337C20.0477 56.9678 20.5269 57.3142 21.0553 57.5864C21.9892 58.0689 22.9845 58.2545 24.0289 58.1679C24.4344 58.1308 24.8399 58.0442 25.2086 57.8462C26.0933 57.3637 26.4373 56.6708 26.2899 55.6439C26.0687 54.1344 25.5035 52.7487 24.9137 51.3506C24.3239 49.9277 23.5989 48.5914 22.8862 47.2304C22.6281 46.7479 22.4315 46.2406 22.2964 45.7086C22.0015 44.5579 22.4561 43.63 23.5497 43.2217C24.4836 42.8629 25.4666 42.6278 26.4619 42.5783C28.2191 42.4793 29.9885 42.4669 31.7334 42.7886C34.068 43.2341 36.4027 43.7042 38.6514 44.5084C38.8357 44.5703 39.02 44.7188 39.2289 44.5579C39.2412 44.2981 39.0323 44.2115 38.8725 44.0878C37.398 42.8505 35.7023 42.1205 33.8837 41.6256C32.6549 41.2915 31.4016 41.0193 30.136 40.8214C29.4847 40.7224 29.0423 40.4007 28.6737 39.8316C27.7398 38.3468 27.1623 36.7136 26.6708 35.0309C26.2899 33.7071 25.995 32.3584 25.7124 31.0098C25.528 30.1313 25.442 30.0571 24.5204 30.0571C23.7586 30.0571 22.9845 30.0571 22.2226 30.0571C20.0477 30.0819 17.9711 29.5622 15.9436 28.8075C15.2309 28.5353 14.5305 28.226 13.781 27.929C13.6335 28.3497 13.9161 28.5353 14.1004 28.758C15.1695 30.02 16.5211 30.8118 18.0817 31.282C19.0893 31.579 20.0969 31.8512 21.129 32.0491C21.3011 32.0862 21.4854 32.111 21.6451 32.1852C22.1612 32.4203 22.2595 33.0018 21.854 33.3977C21.7311 33.5215 21.5714 33.6205 21.4117 33.7071C20.3058 34.2638 19.1507 34.6721 17.9588 34.9691C17.4673 35.0928 17.455 35.0681 17.5779 34.5484C17.6516 34.2143 17.5779 34.1154 17.2461 34.1896C17.0495 34.2267 16.8529 34.301 16.6563 34.3752C14.8869 34.9691 13.1174 35.5753 11.3848 36.2806C11.2497 36.3425 11.1145 36.4167 10.9425 36.3919C10.8565 36.1445 11.0654 36.0703 11.176 35.9589C11.3234 35.8228 11.5077 35.7114 11.6552 35.5753C11.7903 35.464 11.9992 35.3774 11.9378 35.1547C11.8764 34.9443 11.6675 34.9196 11.4954 34.9196C10.6844 34.8948 9.86117 34.833 9.05017 35.0186C8.80442 35.0681 8.57095 35.1176 8.30062 35.1052C8.59553 34.7464 9.0256 34.6474 9.40652 34.4742C10.0209 34.1896 10.0332 34.1649 9.8243 33.4225C11.1637 33.3111 12.4539 32.8781 13.8301 33.175C14.8254 33.3977 15.8453 33.5462 16.8652 33.373C17.0126 33.3482 17.1724 33.3359 17.3075 33.274C17.4673 33.1874 17.5164 33.0142 17.3321 32.9152C17.1601 32.8162 16.9512 32.7667 16.7546 32.7172C14.5551 32.0367 12.3924 31.2449 10.4141 30.02C9.71371 29.5869 9.11161 29.0178 8.48494 28.4858C8.44808 28.4487 8.41121 28.4115 8.37435 28.3744C7.44048 27.1619 7.32989 26.3453 8.90272 25.5411C9.98404 24.9843 11.1391 24.6502 12.3064 24.378C14.8991 23.7718 17.5164 23.3758 20.1952 23.5243C21.8049 23.6109 23.39 23.8213 24.9751 24.1429C25.9458 24.3409 25.9335 24.3285 26.3636 23.4501C27.0271 22.1015 27.6415 20.7281 28.6614 19.5898C28.9563 19.2557 29.2881 18.9835 29.6199 18.6989C29.755 18.5876 29.9025 18.4144 30.0868 18.5134C30.2957 18.6247 30.1605 18.835 30.136 19.0083C29.9885 19.9362 29.9148 20.8642 29.7919 21.7921C29.497 24.2296 29.7182 26.6299 30.2588 28.9931C30.5046 30.0571 30.7626 31.1212 31.0821 32.1605C31.549 33.7194 32.3723 35.1052 33.257 36.4414C34.793 38.8046 36.8328 40.6358 39.2043 42.0834C39.9539 42.5412 40.7526 42.8752 41.5881 43.1103C43.5419 43.6671 45.5325 44.0012 47.5477 44.1125C50.2633 44.261 52.8068 43.5434 55.1784 42.2071C56.8249 41.2792 58.324 40.1533 59.5528 38.6933C60.3392 37.7529 61.2362 36.9611 62.2438 36.2806C64.9717 34.4247 67.9699 33.472 71.263 33.5091C73.5977 33.5338 75.8955 33.7566 78.1196 34.536C78.992 34.8454 79.8276 35.2537 80.5526 35.8228C81.4742 36.5404 81.6585 37.2333 81.2776 38.3592C80.9212 39.4233 80.1594 40.1409 79.3484 40.8214C77.5052 42.3061 75.404 43.3825 73.0939 44.063ZM84.9393 43.8651C83.0101 45.6467 80.9704 47.2923 78.8077 48.7647C78.6971 48.8389 78.5988 48.9255 78.5005 48.9874C78.3899 49.0616 78.2794 49.1358 78.1442 49.074C77.9599 48.9874 77.9967 48.8142 78.0336 48.6657C78.2056 47.8738 78.0582 47.1191 77.8739 46.352C77.7387 45.7581 77.751 45.721 78.3162 45.4859C80.7738 44.4218 83.2436 43.3578 85.7134 42.2814C86.1067 42.1081 86.4999 41.9225 86.8808 41.7493C86.9176 41.7988 86.9422 41.8359 86.9791 41.8854C86.3033 42.5536 85.6397 43.2341 84.9393 43.8651ZM91.759 29.9705C91.8082 31.3068 91.7222 32.5564 91.5993 33.7937C91.5255 34.4865 91.3781 34.5732 90.7883 34.2267C88.4413 32.841 86.0452 31.5666 83.6122 30.3788C81.4619 29.3395 79.2255 28.5353 76.9154 27.9414C76.5099 27.8424 76.1167 27.7929 75.6989 27.8424C73.9049 28.0404 72.0986 28.226 70.3046 28.461C67.4661 28.8322 64.64 29.2529 61.8629 29.9705C60.3024 30.3788 58.9016 31.084 57.6851 32.1728C57.3902 32.4327 57.0953 32.544 56.7021 32.445C53.9865 31.8017 51.406 30.8613 49.182 29.1044C47.5968 27.8424 46.3681 26.3082 45.7783 24.3162C45.2376 22.5097 45.2376 20.691 45.7537 18.8598C46.1838 17.3751 46.9947 16.1254 48.0023 15.0119C48.8871 14.0344 49.8332 13.1312 50.9268 12.3889C51.6887 11.8692 52.4874 11.4114 53.3352 11.0402C56.0877 9.84008 58.9876 9.30806 61.9489 9.04823C65.6475 8.73891 69.2724 9.22144 72.885 10.0009C75.232 10.5082 77.5544 11.164 79.803 12.0053C82.0763 12.859 84.1529 14.0716 85.9346 15.7542C87.3231 17.0534 88.6011 18.4639 89.5964 20.1342C90.5671 21.7674 91.0463 23.5614 91.415 25.405C91.7344 26.9392 91.8205 28.4981 91.759 29.9705Z" fill="white"/>
<path d="M78.8489 14.4096C78.1977 14.0755 77.5833 14.1745 77.018 14.7065C76.2931 15.3994 76.1947 16.0799 76.7477 16.9336C76.9812 17.2801 77.1163 17.5894 76.9443 18.0101C76.2808 19.5814 75.3469 20.9053 73.7618 21.6476C71.894 22.5137 69.8911 21.9322 68.8221 20.1505C67.9497 18.7029 67.495 17.1192 67.3967 15.4242C67.3844 15.1272 67.495 14.9293 67.7162 14.7684C67.9988 14.5704 68.2077 14.3106 68.3674 14.0137C68.8835 13.0486 68.5149 11.9103 67.5442 11.4401C66.5734 10.97 65.4553 11.3783 65.0252 12.3434C64.632 13.2589 64.9146 14.2982 65.7993 14.756C66.4014 15.0654 66.598 15.5108 66.5611 16.1418C66.5489 16.2655 66.5611 16.4016 66.5611 16.4635C66.598 17.775 66.2662 18.9504 65.9345 20.1258C65.7379 20.831 65.357 21.4621 64.9023 22.0312C64.165 22.9715 63.1697 23.3427 62.0393 23.0705C61.2528 22.8849 60.491 22.5385 59.852 21.9817C59.1762 21.3878 58.5004 20.7816 57.8737 20.1382C57.3945 19.6433 57.1364 19.235 57.5542 18.5173C57.9229 17.8863 57.6525 17.045 57.1487 16.5996C56.5835 16.1047 55.8708 16.0428 55.2318 16.4264C54.6297 16.7852 54.3471 17.4162 54.47 18.1585C54.5929 18.8638 55.1827 19.4577 55.9568 19.5195C56.4238 19.5567 56.6818 19.7546 56.9276 20.1505C57.6648 21.3754 58.1809 22.7117 58.7584 24.0108C59.4097 25.4832 59.9012 27.0174 60.6016 28.465C61.0808 29.4425 61.1791 29.4919 62.199 29.2321C63.8824 28.7991 65.6027 28.5269 67.323 28.2794C69.7191 27.933 72.1275 27.5989 74.5359 27.3762C75.1626 27.3143 75.3715 27.2525 75.5435 26.4483C75.6909 25.7554 75.8753 25.0873 76.0596 24.4068C76.2562 23.6768 76.4774 22.9592 76.6494 22.2292C76.9074 21.0909 77.1286 19.9402 77.3744 18.7895C77.5095 18.1462 77.7184 17.6389 78.5294 17.6018C79.1807 17.5646 79.7582 16.8099 79.8319 16.1418C79.9179 15.5108 79.4633 14.7189 78.8489 14.4096ZM67.7162 25.9039C66.6717 25.8544 65.7993 24.8893 65.8362 23.8376C65.873 22.7736 66.8192 21.858 67.8514 21.8827C68.9818 21.9075 69.8297 22.8231 69.7928 23.9613C69.756 25.0873 68.8344 25.9657 67.7162 25.9039Z" fill="#E7742E"/>
</svg>
