<svg width="27" height="24" viewBox="0 0 27 24" fill="none" xmlns="http://www.w3.org/2000/svg">
<path fill-rule="evenodd" clip-rule="evenodd" d="M13.9946 0.502368C14.3111 0.180702 14.7402 0 15.1877 0C15.6352 0 16.0643 0.180702 16.3808 0.502368L26.5059 10.7973C26.8223 11.119 27 11.5554 27 12.0104C27 12.4653 26.8223 12.9017 26.5059 13.2234L16.3808 23.5183C16.0625 23.8309 15.6362 24.0038 15.1938 23.9999C14.7513 23.996 14.3281 23.8156 14.0152 23.4974C13.7023 23.1793 13.5248 22.749 13.521 22.2991C13.5171 21.8492 13.6872 21.4158 13.9946 21.0922L21.2392 13.7262H1.68752C1.23996 13.7262 0.810736 13.5454 0.494264 13.2236C0.177792 12.9018 0 12.4654 0 12.0104C0 11.5553 0.177792 11.1189 0.494264 10.7971C0.810736 10.4753 1.23996 10.2945 1.68752 10.2945H21.2392L13.9946 2.92853C13.6783 2.60677 13.5005 2.17042 13.5005 1.71545C13.5005 1.26048 13.6783 0.824131 13.9946 0.502368Z" fill="#E7742E"/>
</svg>
