<svg width="32" height="29" viewBox="0 0 32 29" fill="none" xmlns="http://www.w3.org/2000/svg">
<path d="M29.631 0.00296928C29.2358 0.0319779 28.8479 0.125519 28.4824 0.279943H28.4775C28.1266 0.420293 26.4586 1.12825 23.9226 2.20137L14.835 6.06286C8.31407 8.8326 1.90398 11.5601 1.90398 11.5601L1.98031 11.5303C1.98031 11.5303 1.53836 11.6769 1.07672 11.9961C0.791515 12.1792 0.5461 12.4187 0.355319 12.7003C0.128805 13.0356 -0.0533902 13.5486 0.0143177 14.079C0.125112 14.9757 0.701245 15.5135 1.11488 15.8103C1.53344 16.1109 1.9323 16.2513 1.9323 16.2513H1.94215L7.95337 18.2944C8.22297 19.1676 9.78518 24.3493 10.1606 25.5429C10.3822 26.2559 10.5977 26.7018 10.8673 27.0421C10.9978 27.216 11.1504 27.3613 11.3338 27.478C11.4292 27.534 11.5309 27.5782 11.6367 27.6097L11.5751 27.5948C11.5936 27.5997 11.6084 27.6147 11.6219 27.6196C11.6712 27.6333 11.7044 27.6382 11.7672 27.6482C12.7188 27.9388 13.4833 27.3426 13.4833 27.3426L13.5263 27.3079L17.0755 24.0475L23.0239 28.6517L23.1593 28.7101C24.399 29.2591 25.6547 28.9536 26.3182 28.4145C26.9867 27.8717 27.2464 27.1775 27.2464 27.1775L27.2895 27.0657L31.8863 3.30678C32.0168 2.72054 32.05 2.17156 31.906 1.63873C31.7574 1.09947 31.4145 0.635671 30.9445 0.338318C30.5499 0.0962645 30.0922 -0.0205691 29.631 0.00296928ZM29.5066 2.54914C29.5017 2.62739 29.5165 2.61869 29.482 2.76898V2.78264L24.9284 26.2944C24.9087 26.3279 24.8754 26.4012 24.7843 26.4745C24.6883 26.5515 24.612 26.5999 24.2119 26.4397L16.9364 20.812L12.5415 24.8536L13.4648 18.9043L25.3518 7.72594C25.8418 7.26639 25.6781 7.16951 25.6781 7.16951C25.7125 6.60563 24.9382 7.00432 24.9382 7.00432L9.94891 16.373L9.94398 16.3481L2.75956 13.9075V13.9026L2.7411 13.8989C2.75369 13.8946 2.76603 13.8897 2.77803 13.884L2.81742 13.8641L2.85559 13.8504C2.85559 13.8504 9.2706 11.1229 15.7915 8.35317C19.0562 6.96582 22.3456 5.56853 24.8754 4.49044C27.4052 3.41857 29.2752 2.63236 29.3811 2.59013C29.482 2.55038 29.434 2.55038 29.5066 2.55038V2.54914Z" fill="#E7742E"/>
</svg>
