<svg width="344" height="95" viewBox="0 0 344 95" fill="none" xmlns="http://www.w3.org/2000/svg">
<line x1="8" y1="94.5" x2="92" y2="94.5" stroke="#0B1427"/>
<path d="M208.407 75.1374C207.043 78.2818 205.428 81.176 203.557 83.8372C201.006 87.4648 198.917 89.976 197.308 91.3703C194.813 93.6591 192.139 94.8314 189.277 94.8979C187.221 94.8979 184.743 94.3146 181.858 93.1313C178.964 91.9535 176.304 91.3701 173.872 91.3701C171.321 91.3701 168.585 91.9534 165.659 93.1313C162.728 94.3145 160.368 94.9313 158.562 94.9923C155.817 95.109 153.081 93.9033 150.35 91.3701C148.607 89.8535 146.426 87.2537 143.814 83.5704C141.011 79.6373 138.708 75.0763 136.902 69.8763C134.969 64.2597 134 58.8211 134 53.5557C134 47.5241 135.307 42.3222 137.924 37.9629C139.981 34.4613 142.717 31.6992 146.141 29.6714C149.566 27.6436 153.266 26.6104 157.251 26.5443C159.431 26.5443 162.291 27.217 165.844 28.5392C169.387 29.8658 171.663 30.5387 172.66 30.5387C173.406 30.5387 175.933 29.7521 180.218 28.1838C184.27 26.7294 187.689 26.1271 190.49 26.3645C198.082 26.9756 203.785 29.9604 207.577 35.3381C200.788 39.4414 197.43 45.1883 197.497 52.561C197.558 58.3036 199.647 63.0823 203.751 66.8766C205.611 68.6377 207.689 69.9988 210 70.9653C209.499 72.4151 208.97 73.804 208.407 75.1374H208.407ZM190.997 6.80053C190.997 11.3016 189.349 15.5042 186.063 19.394C182.098 24.0183 177.301 26.6904 172.1 26.2688C172.03 25.7029 171.995 25.1334 171.995 24.5632C171.995 20.2422 173.881 15.6179 177.23 11.837C178.902 9.92275 181.028 8.33088 183.607 7.06104C186.18 5.81018 188.614 5.1183 190.903 5C190.97 5.6017 190.998 6.2034 190.998 6.80035L190.997 6.80053Z" fill="#E7742E"/>
<line x1="252" y1="94.5" x2="336" y2="94.5" stroke="#0B1427"/>
</svg>
