<svg width="344" height="95" viewBox="0 0 344 95" fill="none" xmlns="http://www.w3.org/2000/svg">
<line x1="8" y1="94.5" x2="92" y2="94.5" stroke="#0B1427"/>
<path d="M189.805 24.0302L188.835 26.5125C188.674 26.8327 188.419 27.0725 188.071 27.2319C187.723 27.3913 187.388 27.3904 187.068 27.2293L182.498 25.3738C181.585 26.6539 180.485 27.7197 179.198 28.5714L181.113 33.1451C181.272 33.5196 181.271 33.8669 181.11 34.1871C180.948 34.5073 180.707 34.7472 180.386 34.9066L177.895 35.9422C177.573 36.1016 177.239 36.1007 176.891 35.9395C176.544 35.7783 176.29 35.5372 176.131 35.2162L174.217 30.6424C173.36 30.8005 172.584 30.8786 171.888 30.8768C171.246 30.8751 170.497 30.793 169.642 30.6305L167.703 35.1942C167.595 35.5145 167.367 35.7544 167.019 35.9138C166.671 36.0732 166.31 36.0723 165.936 35.911L163.53 34.8627C163.156 34.7549 162.903 34.5271 162.77 34.1794C162.637 33.8317 162.624 33.471 162.732 33.0973L164.671 28.6137C163.389 27.7019 162.295 26.6036 161.389 25.3188L156.808 27.2306C156.487 27.3366 156.153 27.3224 155.805 27.1879C155.458 27.0534 155.204 26.8256 155.045 26.5046L154.088 24.0173C153.928 23.6428 153.916 23.2821 154.051 22.9351C154.185 22.5882 154.44 22.3617 154.815 22.2558L159.315 20.3438C159.157 19.4885 159.078 18.7134 159.08 18.0188C159.082 17.3775 159.164 16.6029 159.327 15.6949L154.757 13.8395C154.436 13.6783 154.21 13.4373 154.077 13.1163C153.944 12.7954 153.931 12.448 154.039 12.0742L155.089 9.59218C155.251 9.27199 155.492 9.03215 155.814 8.87268C156.135 8.71321 156.483 8.71412 156.857 8.8754L161.427 10.7309C162.287 9.45063 163.36 8.3847 164.646 7.53308L162.812 2.95952C162.653 2.58505 162.64 2.23768 162.775 1.91742C162.909 1.59715 163.164 1.35735 163.539 1.19802L166.03 0.162508C166.352 0.00303714 166.686 0.00390854 167.033 0.165122C167.381 0.326335 167.634 0.567458 167.794 0.888491L169.628 5.46205C170.485 5.30398 171.261 5.22584 171.956 5.22766C172.652 5.22947 173.427 5.31165 174.283 5.47418L176.141 0.910241C176.303 0.536609 176.558 0.283452 176.906 0.150769C177.254 0.018086 177.588 0.0323163 177.909 0.19346L180.394 1.24194C180.769 1.34979 181.022 1.57755 181.155 1.92523C181.288 2.27291 181.274 2.60685 181.112 2.92705L179.254 7.49099C180.536 8.40274 181.63 9.50103 182.536 10.7859L187.036 8.87388C187.411 8.76799 187.772 8.78229 188.12 8.91679C188.467 9.05128 188.694 9.27898 188.8 9.59987L189.837 12.0873C189.996 12.4618 190.009 12.8225 189.874 13.1695C189.739 13.5165 189.485 13.7429 189.11 13.8488L184.53 15.7606C184.688 16.616 184.766 17.391 184.764 18.0857C184.762 18.7804 184.68 19.555 184.517 20.4095L189.087 22.265C189.462 22.4262 189.715 22.6674 189.848 22.9883C189.981 23.3093 189.967 23.6566 189.805 24.0302ZM171.983 10.3576C169.869 10.3521 168.048 11.0954 166.519 12.5877C164.99 14.0799 164.223 15.8947 164.217 18.0322C164.211 20.1696 164.969 21.9884 166.49 23.4886C168.011 24.9887 169.828 25.7416 171.942 25.7471C174.056 25.7526 175.864 25.0092 177.366 23.5169C178.868 22.0246 179.622 20.2097 179.627 18.0723C179.633 15.9349 178.889 14.1161 177.395 12.616C175.9 11.1159 174.096 10.3631 171.983 10.3576Z" fill="#E7742E"/>
<path d="M169.329 51.1934L167.814 54.6069L173.285 58.4639L172.566 61.8816L166 63.2319L166.011 66.9634L172.586 68.2738L173.327 71.6873L167.88 75.577L169.417 78.9819L175.958 77.5176L178.031 80.3365L174.645 86.0941L177.44 88.5822L182.818 84.5984L185.863 86.3351L185.125 92.9653L188.695 94.1074L191.979 88.2913L195.47 88.645L197.507 95L201.236 94.5979L201.858 87.9563L205.194 86.8669L209.652 91.8488L212.894 89.9724L210.747 83.653L213.349 81.3089L219.459 84.0566L221.654 81.0309L217.11 76.1274L218.527 72.9335L225.232 72.9705L226 69.3189L219.843 66.6782L219.831 63.1863L225.971 60.5071L225.18 56.8598L218.475 56.9382L217.038 53.7529L221.553 48.8208L219.338 45.8094L213.246 48.5941L210.63 46.2657L212.738 39.9335L209.485 38.077L205.057 43.086L201.715 42.0166L201.051 35.3793L197.319 35L195.323 41.3679L191.833 41.7443L188.513 35.9482L184.949 37.1117L185.729 43.7376L182.694 45.4929L177.293 41.5418L174.513 44.0471L177.935 49.7847L175.879 52.6164L169.329 51.1934ZM200.782 52.702C207.632 55.307 211.063 62.9425 208.444 69.7566C205.826 76.5708 198.151 79.9843 191.301 77.3793C184.452 74.7742 181.02 67.1388 183.639 60.3246C186.257 53.5105 193.933 50.097 200.782 52.702Z" fill="#E7742E"/>
<path d="M136.937 31.2535L134.24 32.0151L134.633 37.0039L132.314 38.2247L128.388 35.0956L126.238 36.8859L128.632 41.2914L127.015 43.3497L122.158 42.0787L120.927 44.5903L124.908 47.6512L124.272 50.1904L119.324 50.9979L119.226 53.7939L124.104 54.9795L124.56 57.5602L120.377 60.3058L121.428 62.9052L126.361 62.0115L127.83 64.188L125.134 68.3983L127.153 70.3501L131.287 67.5314L133.515 68.9272L132.774 73.8721L135.412 74.8393L138.034 70.5828L140.634 70.9575L141.976 75.7831L144.776 75.5982L145.431 70.6402L147.955 69.9277L151.147 73.8002L153.624 72.4959L152.2 67.6928L154.212 66.016L158.702 68.2651L160.429 66.0656L157.17 62.2496L158.321 59.8997L163.334 60.1359L164.013 57.4226L159.483 55.2515L159.574 52.6348L164.242 50.819L163.755 48.0612L158.74 47.9122L157.755 45.4805L161.271 41.9246L159.701 39.5979L155.066 41.4949L153.176 39.6686L154.933 34.9886L152.553 33.4969L149.1 37.113L146.631 36.2077L146.325 31.2131L143.546 30.8132L141.871 35.5231L139.251 35.6965L136.937 31.2535ZM151.139 50.0558C152.918 55.2396 150.151 60.863 144.959 62.6158C139.767 64.3699 134.117 61.5891 132.34 56.405C130.561 51.2212 133.329 45.5978 138.521 43.8451C143.711 42.0926 149.361 44.8721 151.139 50.0558Z" fill="#E7742E"/>
<line x1="252" y1="94.5" x2="336" y2="94.5" stroke="#0B1427"/>
</svg>
