<svg width="344" height="193" viewBox="0 0 344 193" fill="none" xmlns="http://www.w3.org/2000/svg">
<line x1="8" y1="94.5" x2="92" y2="94.5" stroke="#0B1427"/>
<path d="M130.694 29L213.31 28.9813C215.9 28.9804 218 26.9387 218 24.4206L217.998 15.558C217.998 13.0399 215.898 10.9991 213.306 11L130.69 11.0187C128.1 11.0196 126 13.0614 126 15.5794L126.002 24.4411C126.003 26.9592 128.103 29 130.694 29ZM208.059 17.4516C209.502 17.4516 210.672 18.5889 210.672 19.992C210.672 21.395 209.502 22.5323 208.059 22.5323C206.616 22.5323 205.445 21.395 205.445 19.992C205.445 18.5889 206.616 17.4516 208.059 17.4516ZM198.071 17.4534C199.515 17.4534 200.685 18.5907 200.685 19.9938C200.685 21.3968 199.515 22.5341 198.071 22.5341C196.628 22.5341 195.458 21.3968 195.458 19.9938C195.458 18.5907 196.628 17.4534 198.071 17.4534ZM188.083 17.4561C189.527 17.4561 190.697 18.5934 190.697 19.9964C190.697 21.3995 189.527 22.5368 188.083 22.5368C186.64 22.5368 185.47 21.3995 185.47 19.9964C185.47 18.5934 186.64 17.4561 188.083 17.4561ZM133.33 19.7083C133.33 18.4765 134.366 17.4686 135.634 17.4686L173.964 17.4597C175.232 17.4597 176.268 18.4667 176.268 19.6985V20.3006C176.268 21.5315 175.232 22.5394 173.965 22.5403L135.635 22.5493C134.367 22.5493 133.33 21.5422 133.33 20.3104V19.7083Z" fill="#E7742E"/>
<path d="M213.306 33L130.69 33.0187C128.1 33.0196 126 35.0612 126 37.5792L126.002 46.4414C126.003 48.9593 128.103 51 130.694 51L213.31 50.9813C215.9 50.9804 218 48.9388 218 46.4208L217.998 37.5595C217.998 35.0398 215.898 32.9991 213.306 33ZM176.268 42.2992C176.268 43.531 175.232 44.5389 173.965 44.5389L135.635 44.5478C134.367 44.5478 133.33 43.5408 133.33 42.3091V41.707C133.33 40.4753 134.366 39.4674 135.634 39.4674L173.964 39.4585C175.232 39.4585 176.268 40.4654 176.268 41.6972V42.2992ZM188.083 44.5362C186.64 44.5362 185.47 43.399 185.47 41.996C185.47 40.593 186.64 39.4558 188.083 39.4558C189.527 39.4558 190.697 40.593 190.697 41.996C190.697 43.399 189.527 44.5362 188.083 44.5362ZM198.071 44.5335C196.628 44.5335 195.458 43.3963 195.458 41.9933C195.458 40.5903 196.628 39.4531 198.071 39.4531C199.515 39.4531 200.685 40.5903 200.685 41.9933C200.685 43.3963 199.515 44.5335 198.071 44.5335ZM208.059 44.5309C206.616 44.5309 205.445 43.3936 205.445 41.9906C205.445 40.5876 206.616 39.4504 208.059 39.4504C209.502 39.4504 210.672 40.5876 210.672 41.9906C210.672 43.3936 209.502 44.5309 208.059 44.5309Z" fill="#E7742E"/>
<path d="M213.306 55L130.69 55.0187C128.1 55.0196 126 57.0613 126 59.5794L126.002 68.4411C126.003 70.9592 128.103 73 130.694 73L213.31 72.9813C215.9 72.9804 218 70.9387 218 68.4206L217.998 59.5589C217.998 57.0408 215.898 55 213.306 55ZM176.268 64.3006C176.268 65.5315 175.232 66.5394 173.965 66.5403L135.635 66.5493C134.367 66.5493 133.33 65.5422 133.33 64.3104V63.7083C133.33 62.4765 134.366 61.4686 135.634 61.4686L173.964 61.4597C175.232 61.4597 176.268 62.4667 176.268 63.6985V64.3006ZM188.083 66.5368C186.64 66.5368 185.47 65.3995 185.47 63.9964C185.47 62.5934 186.64 61.4561 188.083 61.4561C189.527 61.4561 190.697 62.5934 190.697 63.9964C190.697 65.3995 189.527 66.5368 188.083 66.5368ZM198.071 66.535C196.628 66.535 195.458 65.3977 195.458 63.9946C195.458 62.5916 196.628 61.4543 198.071 61.4543C199.515 61.4543 200.685 62.5916 200.685 63.9946C200.685 65.3977 199.515 66.535 198.071 66.535ZM208.059 66.5323C206.616 66.5323 205.445 65.395 205.445 63.992C205.445 62.5889 206.616 61.4516 208.059 61.4516C209.502 61.4516 210.672 62.5889 210.672 63.992C210.672 65.395 209.502 66.5323 208.059 66.5323Z" fill="#E7742E"/>
<path d="M213.306 77L130.69 77.0187C128.1 77.0196 126 79.0613 126 81.5794L126.002 90.4411C126.003 92.9592 128.103 95 130.694 95L213.31 94.9813C215.9 94.9804 218 92.9387 218 90.4206L217.998 81.558C217.998 79.0399 215.898 76.9991 213.306 77ZM176.268 86.3006C176.268 87.5315 175.232 88.5394 173.965 88.5403L135.635 88.5493C134.367 88.5493 133.33 87.5422 133.33 86.3104V85.7083C133.33 84.4765 134.366 83.4686 135.634 83.4686L173.964 83.4597C175.232 83.4597 176.268 84.4667 176.268 85.6985V86.3006ZM188.083 88.5368C186.64 88.5368 185.47 87.3995 185.47 85.9964C185.47 84.5934 186.64 83.4561 188.083 83.4561C189.527 83.4561 190.697 84.5934 190.697 85.9964C190.697 87.3995 189.527 88.5368 188.083 88.5368ZM198.071 88.5341C196.628 88.5341 195.458 87.3968 195.458 85.9938C195.458 84.5907 196.628 83.4534 198.071 83.4534C199.515 83.4534 200.685 84.5907 200.685 85.9938C200.685 87.3968 199.515 88.5341 198.071 88.5341ZM208.059 88.5323C206.616 88.5323 205.445 87.395 205.445 85.992C205.445 84.5889 206.616 83.4516 208.059 83.4516C209.502 83.4516 210.672 84.5889 210.672 85.992C210.672 87.395 209.502 88.5323 208.059 88.5323Z" fill="#E7742E"/>
<line x1="252" y1="94.5" x2="336" y2="94.5" stroke="#0B1427"/>
<path d="M33.6545 142.068H29.4205V151H26.5785V130.7H29.4205V139.516H33.7125L40.0925 130.7H43.1955L35.9455 140.531L43.5435 151H40.2375L33.6545 142.068ZM55.5943 151.232C53.545 151.232 51.6987 150.787 50.0553 149.898C48.412 148.989 47.1167 147.742 46.1693 146.157C45.2413 144.572 44.7773 142.803 44.7773 140.85C44.7773 138.897 45.2413 137.128 46.1693 135.543C47.1167 133.958 48.412 132.72 50.0553 131.831C51.6987 130.922 53.545 130.468 55.5943 130.468C57.6243 130.468 59.461 130.922 61.1043 131.831C62.7477 132.72 64.0333 133.958 64.9613 135.543C65.8893 137.109 66.3533 138.878 66.3533 140.85C66.3533 142.822 65.8893 144.601 64.9613 146.186C64.0333 147.752 62.7477 148.989 61.1043 149.898C59.461 150.787 57.6243 151.232 55.5943 151.232ZM55.5943 148.651C57.083 148.651 58.417 148.313 59.5963 147.636C60.795 146.959 61.7327 146.031 62.4093 144.852C63.1053 143.653 63.4533 142.319 63.4533 140.85C63.4533 139.381 63.1053 138.056 62.4093 136.877C61.7327 135.678 60.795 134.741 59.5963 134.064C58.417 133.387 57.083 133.049 55.5943 133.049C54.1057 133.049 52.7523 133.387 51.5343 134.064C50.3357 134.741 49.3883 135.678 48.6923 136.877C48.0157 138.056 47.6773 139.381 47.6773 140.85C47.6773 142.319 48.0157 143.653 48.6923 144.852C49.3883 146.031 50.3357 146.959 51.5343 147.636C52.7523 148.313 54.1057 148.651 55.5943 148.651ZM78.9584 130.7C81.5877 130.7 83.6564 131.328 85.1644 132.585C86.6724 133.842 87.4264 135.572 87.4264 137.776C87.4264 139.98 86.6724 141.71 85.1644 142.967C83.6564 144.224 81.5877 144.852 78.9584 144.852H73.9414V151H71.0414V130.7H78.9584ZM78.8714 142.329C80.708 142.329 82.1097 141.942 83.0764 141.169C84.043 140.376 84.5264 139.245 84.5264 137.776C84.5264 136.307 84.043 135.185 83.0764 134.412C82.1097 133.619 80.708 133.223 78.8714 133.223H73.9414V142.329H78.8714ZM108.947 130.7V151H106.105V133.223H94.3313V151H91.4603V130.7H108.947ZM124.413 151.232C122.363 151.232 120.517 150.787 118.874 149.898C117.23 148.989 115.935 147.742 114.988 146.157C114.06 144.572 113.596 142.803 113.596 140.85C113.596 138.897 114.06 137.128 114.988 135.543C115.935 133.958 117.23 132.72 118.874 131.831C120.517 130.922 122.363 130.468 124.413 130.468C126.443 130.468 128.279 130.922 129.923 131.831C131.566 132.72 132.852 133.958 133.78 135.543C134.708 137.109 135.172 138.878 135.172 140.85C135.172 142.822 134.708 144.601 133.78 146.186C132.852 147.752 131.566 148.989 129.923 149.898C128.279 150.787 126.443 151.232 124.413 151.232ZM124.413 148.651C125.901 148.651 127.235 148.313 128.415 147.636C129.613 146.959 130.551 146.031 131.228 144.852C131.924 143.653 132.272 142.319 132.272 140.85C132.272 139.381 131.924 138.056 131.228 136.877C130.551 135.678 129.613 134.741 128.415 134.064C127.235 133.387 125.901 133.049 124.413 133.049C122.924 133.049 121.571 133.387 120.353 134.064C119.154 134.741 118.207 135.678 117.511 136.877C116.834 138.056 116.496 139.381 116.496 140.85C116.496 142.319 116.834 143.653 117.511 144.852C118.207 146.031 119.154 146.959 120.353 147.636C121.571 148.313 122.924 148.651 124.413 148.651ZM147.777 130.7C150.406 130.7 152.475 131.328 153.983 132.585C155.491 133.842 156.245 135.572 156.245 137.776C156.245 139.98 155.491 141.71 153.983 142.967C152.475 144.224 150.406 144.852 147.777 144.852H142.76V151H139.86V130.7H147.777ZM147.69 142.329C149.526 142.329 150.928 141.942 151.895 141.169C152.861 140.376 153.345 139.245 153.345 137.776C153.345 136.307 152.861 135.185 151.895 134.412C150.928 133.619 149.526 133.223 147.69 133.223H142.76V142.329H147.69ZM172.454 145.925H161.666L159.433 151H156.446L165.639 130.7H168.51L177.732 151H174.687L172.454 145.925ZM171.439 143.605L167.06 133.658L162.681 143.605H171.439ZM194.165 133.223H187.205V151H184.363V133.223H177.432V130.7H194.165V133.223ZM197.69 130.7H200.561V146.36L212.567 130.7H215.235V151H212.393V135.369L200.358 151H197.69V130.7ZM234.208 140.473C235.58 140.802 236.615 141.391 237.311 142.242C238.026 143.073 238.384 144.146 238.384 145.461C238.384 147.22 237.736 148.583 236.441 149.55C235.165 150.517 233.299 151 230.844 151H221.564V130.7H230.293C232.516 130.7 234.246 131.154 235.484 132.063C236.74 132.952 237.369 134.238 237.369 135.92C237.369 137.022 237.088 137.96 236.528 138.733C235.986 139.506 235.213 140.086 234.208 140.473ZM224.435 139.632H230.09C231.501 139.632 232.574 139.352 233.309 138.791C234.063 138.23 234.44 137.409 234.44 136.326C234.44 135.243 234.063 134.422 233.309 133.861C232.555 133.281 231.482 132.991 230.09 132.991H224.435V139.632ZM230.786 148.709C233.898 148.709 235.455 147.549 235.455 145.229C235.455 144.069 235.058 143.218 234.266 142.677C233.492 142.116 232.332 141.836 230.786 141.836H224.435V148.709H230.786ZM260.687 130.7V151H257.787V141.952H246.129V151H243.229V130.7H246.129V139.429H257.787V130.7H260.687ZM275.921 137.776C278.338 137.776 280.184 138.317 281.46 139.4C282.755 140.483 283.403 142.078 283.403 144.185C283.403 146.408 282.707 148.1 281.315 149.26C279.942 150.42 277.97 151 275.399 151H267.018V130.7H269.889V137.776H275.921ZM275.283 148.709C276.965 148.709 278.251 148.332 279.14 147.578C280.049 146.805 280.503 145.693 280.503 144.243C280.503 141.459 278.763 140.067 275.283 140.067H269.889V148.709H275.283ZM286.622 130.7H289.493V151H286.622V130.7ZM314.641 151L314.612 136.21L307.275 148.535H305.941L298.604 136.297V151H295.82V130.7H298.198L306.666 144.968L315.018 130.7H317.396L317.425 151H314.641ZM93.9484 177.068H89.7144V186H86.8724V165.7H89.7144V174.516H94.0064L100.386 165.7H103.489L96.2394 175.531L103.837 186H100.531L93.9484 177.068ZM123.823 165.7V186H120.981V168.223H111.991L111.788 174.168C111.691 176.971 111.459 179.243 111.092 180.983C110.744 182.723 110.183 184.038 109.41 184.927C108.636 185.797 107.592 186.232 106.278 186.232C105.678 186.232 105.069 186.155 104.451 186L104.654 183.419C104.963 183.496 105.272 183.535 105.582 183.535C106.413 183.535 107.08 183.206 107.583 182.549C108.085 181.872 108.462 180.867 108.714 179.533C108.965 178.199 109.129 176.44 109.207 174.255L109.526 165.7H123.823ZM130.146 165.7H133.017V181.36L145.023 165.7H147.691V186H144.849V170.369L132.814 186H130.146V165.7ZM168.752 183.477V186H154.02V165.7H168.346V168.223H156.92V174.458H167.099V176.923H156.92V183.477H168.752ZM190.764 165.7V186H187.864V176.952H176.206V186H173.306V165.7H176.206V174.429H187.864V165.7H190.764ZM211.044 168.223H204.084V186H201.242V168.223H194.311V165.7H211.044V168.223ZM226.744 180.925H215.956L213.723 186H210.736L219.929 165.7H222.8L232.022 186H228.977L226.744 180.925ZM225.729 178.605L221.35 168.658L216.971 178.605H225.729ZM254.347 186L254.318 171.21L246.981 183.535H245.647L238.31 171.297V186H235.526V165.7H237.904L246.372 179.968L254.724 165.7H257.102L257.131 186H254.347Z" fill="#0B1427"/>
</svg>
