<svg width="344" height="95" viewBox="0 0 344 95" fill="none" xmlns="http://www.w3.org/2000/svg">
<line x1="8" y1="94.5" x2="92" y2="94.5" stroke="#0B1427"/>
<path d="M214.339 19H129.667C127.65 19 126 20.6545 126 22.6772V69.2594C126 71.2822 126 74.5911 126 76.6138V79.0634C126 81.0862 127.65 82.7406 129.667 82.7406H164.667V92.5446H156.109C154.092 92.5446 152.442 93.0942 152.442 93.7723C152.442 94.4446 154.092 95 156.109 95H187.891C189.908 95 191.557 94.4505 191.557 93.7723C191.557 93.1 189.908 92.5446 187.891 92.5446H179.333V82.7406H214.333C216.35 82.7406 218 81.0862 218 79.0634V76.6138C218 74.5911 218 71.2822 218 69.2594V22.6772C218.006 20.6545 216.356 19 214.339 19ZM214.584 69.5049H129.911V22.9228H214.584V69.5049Z" fill="#E7742E"/>
<line x1="252" y1="94.5" x2="336" y2="94.5" stroke="#0B1427"/>
</svg>
