<svg width="344" height="95" viewBox="0 0 344 95" fill="none" xmlns="http://www.w3.org/2000/svg">
<line x1="8" y1="94.5" x2="92" y2="94.5" stroke="#0B1427"/>
<path d="M213.143 19H130.857C127.086 19 124 22.06 124 25.8V80.2C124 83.94 127.086 87 130.857 87H213.143C216.914 87 220 83.94 220 80.2V25.8C220 22.06 216.914 19 213.143 19ZM216.571 80.2H127.429V22.4H216.571V80.2Z" fill="#E7742E"/>
<path d="M234.189 93C232.289 94.08 227.625 95 223.824 95H120.176C116.375 95 111.711 94.08 109.811 93C107.911 91.92 109.466 91 113.266 91H230.734C234.534 91 236.089 91.92 234.189 93Z" fill="#E7742E"/>
<line x1="252" y1="94.5" x2="336" y2="94.5" stroke="#0B1427"/>
</svg>
