<svg width="142" height="76" viewBox="0 0 142 76" fill="none" xmlns="http://www.w3.org/2000/svg">
<path d="M97.7546 0H4.2519C1.91433 0 0 1.90145 0 4.2233V57.6969C0 60.0187 1.91433 61.9202 4.2519 61.9202H42.4994V73.1802H32.5827C30.2451 73.1802 28.3308 73.814 28.3308 74.5901C28.3308 75.3662 30.2451 76 32.5827 76H69.4173C71.7548 76 73.6692 75.3662 73.6692 74.5901C73.6692 73.814 71.7548 73.1802 69.4173 73.1802H59.5005V61.9202H97.7481C100.086 61.9202 102 60.0187 102 57.6969V4.2233C102 1.90145 100.092 0 97.7546 0ZM98.6011 58.2595H3.68542V3.38253H98.6011V58.2595V58.2595Z" fill="#E7742E"/>
<path d="M137.635 16H114.365C111.965 16 110 17.8854 110 20.1877V71.8123C110 74.1146 111.965 76 114.365 76H137.635C140.035 76 142 74.1146 142 71.8123V20.1877C142 17.8854 140.035 16 137.635 16ZM126.003 55.068C124.406 55.068 123.095 53.811 123.095 52.2783C123.095 50.7456 124.406 49.4887 126.003 49.4887C127.601 49.4887 128.911 50.7456 128.911 52.2783C128.911 53.811 127.601 55.068 126.003 55.068ZM139.092 42.5113H112.915V35.534H139.092V42.5113ZM139.092 34.1424H112.915V27.165H139.092V34.1424ZM139.092 25.767H112.915V18.7897H139.092V25.767Z" fill="#E7742E"/>
</svg>
