<svg width="344" height="95" viewBox="0 0 344 95" fill="none" xmlns="http://www.w3.org/2000/svg">
<line x1="8" y1="94.5" x2="92" y2="94.5" stroke="#0B1427"/>
<path d="M199.755 19H106.252C103.914 19 102 20.9015 102 23.2233V76.6969C102 79.0187 103.914 80.9202 106.252 80.9202H144.499V92.1802H134.583C132.245 92.1802 130.331 92.814 130.331 93.5901C130.331 94.3662 132.245 95 134.583 95H171.417C173.755 95 175.669 94.3662 175.669 93.5901C175.669 92.814 173.755 92.1802 171.417 92.1802H161.501V80.9202H199.748C202.086 80.9202 204 79.0187 204 76.6969V23.2233C204 20.9015 202.092 19 199.755 19ZM200.601 77.2595H105.685V22.3825H200.601V77.2595Z" fill="#E7742E"/>
<path d="M239.635 35H216.365C213.965 35 212 36.8854 212 39.1877V90.8123C212 93.1146 213.965 95 216.365 95H239.635C242.035 95 244 93.1146 244 90.8123V39.1877C244 36.8854 242.035 35 239.635 35ZM228.003 74.068C226.406 74.068 225.095 72.811 225.095 71.2783C225.095 69.7456 226.406 68.4887 228.003 68.4887C229.601 68.4887 230.911 69.7456 230.911 71.2783C230.911 72.811 229.601 74.068 228.003 74.068ZM241.092 61.5113H214.915V54.534H241.092V61.5113ZM241.092 53.1424H214.915V46.165H241.092V53.1424ZM241.092 44.767H214.915V37.7897H241.092V44.767Z" fill="#E7742E"/>
<line x1="252" y1="94.5" x2="336" y2="94.5" stroke="#0B1427"/>
</svg>
