<svg width="344" height="95" viewBox="0 0 344 95" fill="none" xmlns="http://www.w3.org/2000/svg">
<line x1="8" y1="94.5" x2="92" y2="94.5" stroke="#0B1427"/>
<path fill-rule="evenodd" clip-rule="evenodd" d="M197.269 47.6343C196.801 47.2282 195.662 47 195 47C194.338 47 193.199 47.2282 192.731 47.6343C192.263 48.0404 192 48.5912 192 49.1655V65H120.48C119 65 117.812 65.209 117 66C116.188 66.791 116 68 116 69.5V90.6365C116 91.7937 116.16 93.1817 117 94C117.84 94.8183 119.292 95 120.48 95H223.52C224.708 95 226.16 94.8183 227 94C227.84 93.1817 228 91.7937 228 90.6365V70C228 67.5 227.84 66.8183 227 66C226.16 65.1817 224.708 65 223.52 65H198V49.1655C198 48.5912 197.737 48.0404 197.269 47.6343ZM134.056 77.4135C133.426 76.7998 132.571 76.455 131.68 76.455C130.789 76.455 129.934 76.7998 129.304 77.4135C128.674 78.0273 128.32 78.8597 128.32 79.7276C128.32 80.5956 128.674 81.428 129.304 82.0417C129.934 82.6555 130.789 83.0003 131.68 83.0003C132.571 83.0003 133.426 82.6555 134.056 82.0417C134.686 81.428 135.04 80.5956 135.04 79.7276C135.04 78.8597 134.686 78.0273 134.056 77.4135ZM211.2 77.5459C211.794 77.5459 212.364 77.7758 212.784 78.1849C213.204 78.5941 213.44 79.1491 213.44 79.7277C213.44 80.3063 213.204 80.8613 212.784 81.2705C212.364 81.6796 211.794 81.9095 211.2 81.9095C210.606 81.9095 210.036 81.6796 209.616 81.2705C209.196 80.8613 208.96 80.3063 208.96 79.7277C208.96 79.1491 209.196 78.5941 209.616 78.1849C210.036 77.7758 210.606 77.5459 211.2 77.5459ZM200 77.5459C200.594 77.5459 201.164 77.7758 201.584 78.1849C202.004 78.5941 202.24 79.1491 202.24 79.7277C202.24 80.3063 202.004 80.8613 201.584 81.2705C201.164 81.6796 200.594 81.9095 200 81.9095C199.406 81.9095 198.836 81.6796 198.416 81.2705C197.996 80.8613 197.76 80.3063 197.76 79.7277C197.76 79.1491 197.996 78.5941 198.416 78.1849C198.836 77.7758 199.406 77.5459 200 77.5459ZM188.8 77.5459C189.394 77.5459 189.964 77.7758 190.384 78.1849C190.804 78.5941 191.04 79.1491 191.04 79.7277C191.04 80.3063 190.804 80.8613 190.384 81.2705C189.964 81.6796 189.394 81.9095 188.8 81.9095C188.206 81.9095 187.636 81.6796 187.216 81.2705C186.796 80.8613 186.56 80.3063 186.56 79.7277C186.56 79.1491 186.796 78.5941 187.216 78.1849C187.636 77.7758 188.206 77.5459 188.8 77.5459ZM177.6 77.5459C178.194 77.5459 178.764 77.7758 179.184 78.1849C179.604 78.5941 179.84 79.1491 179.84 79.7277C179.84 80.3063 179.604 80.8613 179.184 81.2705C178.764 81.6796 178.194 81.9095 177.6 81.9095C177.006 81.9095 176.436 81.6796 176.016 81.2705C175.596 80.8613 175.36 80.3063 175.36 79.7277C175.36 79.1491 175.596 78.5941 176.016 78.1849C176.436 77.7758 177.006 77.5459 177.6 77.5459ZM166.4 77.5459C166.994 77.5459 167.564 77.7758 167.984 78.1849C168.404 78.5941 168.64 79.1491 168.64 79.7277C168.64 80.3063 168.404 80.8613 167.984 81.2705C167.564 81.6796 166.994 81.9095 166.4 81.9095C165.806 81.9095 165.236 81.6796 164.816 81.2705C164.396 80.8613 164.16 80.3063 164.16 79.7277C164.16 79.1491 164.396 78.5941 164.816 78.1849C165.236 77.7758 165.806 77.5459 166.4 77.5459Z" fill="#E7742E"/>
<path d="M190.388 45C189.848 45 189.335 44.6585 189.111 44.0874C188.811 43.3265 189.14 42.4468 189.845 42.1233C193.111 40.6256 196.887 40.6256 200.155 42.1233C200.86 42.4468 201.188 43.3265 200.889 44.0874C200.589 44.8482 199.774 45.2027 199.071 44.8792C197.793 44.2952 196.405 43.9931 195 43.9935C193.595 43.9938 192.207 44.2966 190.93 44.8812C190.753 44.9611 190.57 45 190.388 45Z" fill="#E7742E"/>
<path d="M168.672 25C168.334 25.0013 168.004 24.9025 167.725 24.7167C167.446 24.5309 167.232 24.2669 167.111 23.9598C166.99 23.6527 166.967 23.317 167.047 22.9973C167.126 22.6775 167.304 22.3889 167.556 22.1697C175.092 15.5578 184.88 12.9927 195.026 13C205.171 12.9939 214.958 15.5576 222.496 22.1664C222.805 22.4595 222.985 22.8575 222.999 23.2771C223.013 23.6966 222.86 24.1052 222.572 24.4174C222.283 24.7295 221.882 24.921 221.452 24.9517C221.022 24.9824 220.596 24.8499 220.264 24.5821C213.338 18.5093 204.349 15.9941 195.026 16C185.704 15.9933 176.707 18.5091 169.782 24.5832C169.479 24.8531 169.083 25.002 168.672 25Z" fill="#E7742E"/>
<path d="M216.322 30C215.941 30 215.563 29.8846 215.248 29.6478C209.586 25.3758 202.392 22.9594 194.999 22.9594C187.604 22.9594 180.413 25.3738 174.75 29.6458C174.407 29.9028 173.969 30.0269 173.528 29.9915C173.086 29.956 172.678 29.7638 172.39 29.4561C172.249 29.3045 172.143 29.1287 172.077 28.9389C172.011 28.7492 171.987 28.5494 172.007 28.3512C172.026 28.1529 172.089 27.9602 172.19 27.7843C172.292 27.6084 172.431 27.4528 172.599 27.3266C178.865 22.6021 186.82 20 194.999 20C203.18 20 211.134 22.6031 217.401 27.3307C218.109 27.8665 218.203 28.8189 217.61 29.4591C217.451 29.6292 217.253 29.7657 217.031 29.8591C216.808 29.9525 216.566 30.0005 216.322 30Z" fill="#E7742E"/>
<path d="M210.406 35C210.074 35 209.736 34.9001 209.449 34.6912C205.261 31.6611 200.265 29.9961 195 29.9961C189.739 29.9961 184.745 31.6591 180.555 34.6882C180.388 34.8087 180.197 34.8967 179.994 34.9469C179.791 34.9972 179.579 35.0086 179.371 34.9807C179.162 34.9528 178.962 34.886 178.782 34.7843C178.602 34.6825 178.445 34.548 178.321 34.3884C178.066 34.0632 177.957 33.6576 178.015 33.2577C178.074 32.8578 178.296 32.4951 178.634 32.2467C183.381 28.8149 187.917 27 194.999 27C202.083 27 206.62 28.8149 211.366 32.2497C211.704 32.4978 211.926 32.8603 211.985 33.2602C212.043 33.66 211.933 34.0655 211.679 34.3904C211.368 34.7911 210.892 35 210.406 35Z" fill="#E7742E"/>
<path d="M185.458 40C184.975 40 184.501 39.7461 184.226 39.2822C183.796 38.5625 183.999 37.6108 184.679 37.1558C187.765 35.0931 191.333 34.002 195.001 34C198.667 34 202.235 35.0911 205.321 37.1548C206.001 37.6098 206.204 38.5625 205.774 39.2812C205.345 40.001 204.446 40.216 203.765 39.7611C201.145 38.009 198.114 36.9587 195 36.9587C191.884 36.9587 188.853 38.01 186.231 39.7621C186.003 39.917 185.734 40 185.458 40Z" fill="#E7742E"/>
<line x1="252" y1="94.5" x2="336" y2="94.5" stroke="#0B1427"/>
</svg>
