<svg width="126" height="76" viewBox="0 0 126 76" fill="none" xmlns="http://www.w3.org/2000/svg">
<path d="M104.143 0H21.8571C18.0857 0 15 3.06 15 6.8V61.2C15 64.94 18.0857 68 21.8571 68H104.143C107.914 68 111 64.94 111 61.2V6.8C111 3.06 107.914 0 104.143 0ZM107.571 61.2H18.4286V3.4H107.571V61.2Z" fill="#E7742E"/>
<path d="M125.189 74C123.289 75.08 118.625 76 114.824 76H11.1758C7.37539 76 2.71122 75.08 0.811001 74C-1.08922 72.92 0.465507 72 4.26595 72H121.734C125.534 72 127.089 72.92 125.189 74Z" fill="#E7742E"/>
</svg>
