<svg width="21" height="25" viewBox="0 0 21 25" fill="none" xmlns="http://www.w3.org/2000/svg">
<path fill-rule="evenodd" clip-rule="evenodd" d="M20.5604 12.958C20.8419 13.251 21 13.6484 21 14.0627C21 14.477 20.8419 14.8744 20.5604 15.1674L11.5524 24.5425C11.2708 24.8354 10.889 25 10.4909 25C10.0928 25 9.71103 24.8354 9.42949 24.5425L0.421446 15.1674C0.147964 14.8727 -0.00336266 14.478 5.72205e-05 14.0683C0.003479 13.6586 0.161375 13.2667 0.439735 12.977C0.718096 12.6873 1.09465 12.523 1.4883 12.5194C1.88194 12.5159 2.26118 12.6734 2.54434 12.958L8.9896 19.6659L8.9896 1.56252C8.9896 1.14811 9.14777 0.750681 9.42933 0.457652C9.71089 0.164622 10.0928 0 10.4909 0C10.8891 0 11.271 0.164622 11.5525 0.457652C11.8341 0.750681 11.9923 1.14811 11.9923 1.56252L11.9923 19.6659L18.4375 12.958C18.7191 12.6651 19.1009 12.5005 19.499 12.5005C19.8971 12.5005 20.2789 12.6651 20.5604 12.958Z" fill="#B4B4B4"/>
</svg>
