<svg width="344" height="95" viewBox="0 0 344 95" fill="none" xmlns="http://www.w3.org/2000/svg">
<line x1="8" y1="94.5" x2="92" y2="94.5" stroke="#0B1427"/>
<path d="M140.002 19C139.054 18.9979 138.131 19.292 137.367 19.8392C136.602 20.3865 136.037 21.1583 135.752 22.0421C135.468 22.9258 135.48 23.8753 135.787 24.7519C136.093 25.6285 136.678 26.3864 137.456 26.9149V30.3994C135.166 30.723 133.028 31.4448 131.093 32.5399L128.268 28.5825C128.752 27.2882 128.624 25.7948 127.759 24.6002C126.868 23.3806 125.494 22.7334 124.094 22.7334C123.203 22.7334 122.312 22.9823 121.548 23.5299C119.538 24.8988 119.029 27.6118 120.454 29.5781C121.319 30.7976 122.694 31.4448 124.094 31.4448L127.097 35.6262C126.003 36.6965 125.137 37.8912 124.399 39.2103C123.89 39.0112 123.356 38.9116 122.821 38.9116C121.676 38.9116 120.53 39.3347 119.639 40.1561C117.934 41.8984 117.934 44.6362 119.639 46.3785C120.378 47.0505 121.268 47.4238 122.185 47.623C122.185 48.967 122.363 50.2612 122.643 51.5057L119.308 52.3769C118.519 51.7297 117.501 51.3564 116.458 51.3564C116.076 51.3564 115.669 51.3564 115.287 51.5057C114.146 51.8097 113.176 52.5441 112.589 53.5476C112.002 54.551 111.846 55.7414 112.156 56.857C112.691 58.8232 114.549 60.0677 116.458 60.0677C116.84 60.0677 117.221 60.0677 117.629 59.9184C119.079 59.5201 120.174 58.4748 120.632 57.1805L124.475 56.1601C125.621 58.1263 127.148 59.8686 128.93 61.3122L126.13 66.2901C124.73 66.4892 123.457 67.2608 122.719 68.5799C122.442 69.0833 122.268 69.6351 122.209 70.204C122.15 70.7729 122.206 71.3476 122.373 71.8953C122.541 72.4431 122.818 72.9531 123.187 73.3964C123.557 73.8397 124.012 74.2075 124.526 74.4787C125.041 74.75 125.605 74.9195 126.187 74.9775C126.769 75.0355 127.357 74.9809 127.917 74.8168C128.477 74.6527 128.999 74.3824 129.452 74.0211C129.905 73.6599 130.281 73.2149 130.559 72.7116C131.271 71.4173 131.246 69.924 130.61 68.7044L133.333 63.8011C135.395 64.5976 137.635 65.0456 140.002 65.0456H140.46C140.129 65.6927 140.002 66.4394 140.002 67.2359C140.205 69.5257 142.14 71.268 144.456 71.268H144.787C147.256 71.0689 149.088 68.9782 148.91 66.5888C148.808 65.3443 148.172 64.2491 147.256 63.5273C148.452 63.0047 149.598 62.3327 150.667 61.5611L156.623 67.3852C156.368 68.779 156.775 70.1977 157.819 71.268C158.71 72.0893 159.855 72.5125 161 72.5125C162.146 72.5125 163.291 72.0893 164.182 71.268C165.887 69.5257 165.887 66.7879 164.182 65.0456C163.291 64.2243 162.146 63.8011 161 63.8011C160.746 63.8011 160.491 63.8011 160.211 63.8758L154.255 58.0517C155.503 56.4338 156.47 54.592 157.081 52.6009H159.906C160.446 53.3618 161.221 53.9338 162.118 54.2336C163.014 54.5334 163.985 54.5452 164.889 54.2673C165.793 53.9893 166.582 53.4363 167.142 52.6887C167.701 51.9412 168.002 51.0383 168 50.1119C168.002 49.1855 167.701 48.2826 167.142 47.5351C166.582 46.7875 165.793 46.2345 164.889 45.9565C163.985 45.6786 163.014 45.6904 162.118 45.9902C161.221 46.29 160.446 46.8621 159.906 47.623H157.819C157.819 43.7153 156.546 40.1561 154.255 37.1942L157.666 33.8591C157.946 33.9337 158.201 33.9337 158.455 33.9337C159.601 33.9337 160.746 33.5106 161.637 32.6892C163.342 30.9719 163.342 28.2091 161.637 26.4669C160.746 25.6455 159.601 25.2224 158.455 25.2224C157.31 25.2224 156.164 25.6455 155.274 26.4669C154.23 27.5371 153.823 28.9558 154.077 30.3496L150.667 33.6848C148.325 31.9674 145.576 30.8225 142.547 30.3994V26.9149C143.325 26.3864 143.91 25.6285 144.217 24.7519C144.523 23.8753 144.535 22.9258 144.251 22.0421C143.967 21.1583 143.401 20.3865 142.637 19.8392C141.872 19.292 140.949 18.9979 140.002 19ZM140.002 60.0677C132.977 60.0677 127.275 54.4925 127.275 47.623C127.275 40.7534 132.977 35.1782 140.002 35.1782C147.027 35.1782 152.728 40.7534 152.728 47.623C152.728 54.4925 147.027 60.0677 140.002 60.0677ZM136.184 40.1561C134.071 40.1561 132.366 41.8237 132.366 43.8895C132.366 45.9554 134.071 47.623 136.184 47.623C138.296 47.623 140.002 45.9554 140.002 43.8895C140.002 41.8237 138.296 40.1561 136.184 40.1561ZM145.092 50.1119C143.692 50.1119 142.547 51.2319 142.547 52.6009C142.547 53.9698 143.692 55.0898 145.092 55.0898C146.492 55.0898 147.638 53.9698 147.638 52.6009C147.638 51.2319 146.492 50.1119 145.092 50.1119Z" fill="#E7742E"/>
<path d="M229.63 58.2C228.318 58.2 227.229 59.288 227.229 60.6H222.299C221.837 56.3191 220.147 52.263 217.432 48.92L220.922 45.432L220.954 45.464C221.882 46.392 223.419 46.392 224.348 45.464C225.276 44.536 225.276 43 224.348 42.072L220.954 38.68C220.502 38.2337 219.892 37.9834 219.257 37.9834C218.622 37.9834 218.012 38.2337 217.56 38.68C216.632 39.608 216.632 41.112 217.528 42.04L214.039 45.528C210.696 42.8374 206.652 41.1606 202.385 40.696V35.8H202.417C203.729 35.8 204.818 34.712 204.818 33.4C204.818 32.088 203.729 31 202.417 31H197.614C196.302 31 195.213 32.088 195.213 33.4C195.213 34.712 196.27 35.768 197.582 35.8V40.76C193.196 41.208 189.194 42.968 185.929 45.592L182.439 42.104L182.471 42.072C183.4 41.144 183.4 39.608 182.471 38.68C182.019 38.2337 181.41 37.9834 180.774 37.9834C180.139 37.9834 179.529 38.2337 179.077 38.68L175.684 42.072C174.755 43 174.755 44.536 175.684 45.464C176.612 46.392 178.117 46.392 179.045 45.496L182.535 48.984C179.841 52.3083 178.172 56.3443 177.733 60.6H172.802C172.802 59.288 171.714 58.2 170.401 58.2C169.089 58.2 168 59.288 168 60.6V65.4C168 66.712 169.089 67.8 170.401 67.8C171.714 67.8 172.802 66.712 172.802 65.4H177.733C178.213 69.784 179.942 73.752 182.535 77.016L179.045 80.504C178.823 80.2853 178.559 80.1126 178.269 79.9958C177.98 79.8791 177.67 79.8205 177.358 79.8235C177.046 79.8264 176.737 79.8909 176.45 80.0132C176.163 80.1354 175.902 80.3131 175.684 80.536C174.755 81.464 174.755 83 175.684 83.928L179.077 87.32C180.006 88.248 181.543 88.248 182.471 87.32C183.4 86.392 183.4 84.856 182.471 83.928L182.439 83.896L185.929 80.408C189.194 83.032 193.164 84.76 197.55 85.24V90.2C196.238 90.232 195.181 91.288 195.181 92.6C195.181 93.912 196.27 95 197.582 95H202.385C203.697 95 204.786 93.912 204.786 92.6C204.786 91.288 203.697 90.2 202.385 90.2H202.353V85.272C206.739 84.824 210.741 83.064 214.007 80.44L217.496 83.928C216.568 84.856 216.6 86.36 217.528 87.288C218.457 88.216 219.993 88.216 220.922 87.288L224.316 83.896C225.244 82.968 225.244 81.432 224.316 80.504C223.864 80.0577 223.254 79.8074 222.619 79.8074C221.983 79.8074 221.374 80.0577 220.922 80.504L220.89 80.536L217.4 77.048C220.108 73.7006 221.797 69.6467 222.267 65.368H227.197C227.197 66.68 228.285 67.768 229.598 67.768C230.911 67.768 231.999 66.68 231.999 65.368V60.568C232.031 59.288 230.943 58.2 229.63 58.2ZM205.618 50.2C207.379 50.2 208.82 51.64 208.82 53.4C208.82 55.16 207.379 56.6 205.618 56.6C203.858 56.6 202.417 55.16 202.417 53.4C202.417 51.64 203.858 50.2 205.618 50.2ZM200.016 66.2C198.255 66.2 196.814 64.76 196.814 63C196.814 61.24 198.255 59.8 200.016 59.8C201.777 59.8 203.217 61.24 203.217 63C203.217 64.76 201.777 66.2 200.016 66.2ZM194.413 50.2C196.174 50.2 197.614 51.64 197.614 53.4C197.614 55.16 196.174 56.6 194.413 56.6C192.652 56.6 191.211 55.16 191.211 53.4C191.211 51.64 192.652 50.2 194.413 50.2ZM188.81 66.2C187.049 66.2 185.609 64.76 185.609 63C185.609 61.24 187.049 59.8 188.81 59.8C190.571 59.8 192.012 61.24 192.012 63C192.012 64.76 190.571 66.2 188.81 66.2ZM194.413 75.8C192.652 75.8 191.211 74.36 191.211 72.6C191.211 70.84 192.652 69.4 194.413 69.4C196.174 69.4 197.614 70.84 197.614 72.6C197.614 74.36 196.174 75.8 194.413 75.8ZM205.618 75.8C203.858 75.8 202.417 74.36 202.417 72.6C202.417 70.84 203.858 69.4 205.618 69.4C207.379 69.4 208.82 70.84 208.82 72.6C208.82 74.36 207.379 75.8 205.618 75.8ZM208.02 63C208.02 61.24 209.46 59.8 211.221 59.8C212.982 59.8 214.423 61.24 214.423 63C214.423 64.76 212.982 66.2 211.221 66.2C209.46 66.2 208.02 64.76 208.02 63Z" fill="#E7742E"/>
<line x1="252" y1="94.5" x2="336" y2="94.5" stroke="#0B1427"/>
</svg>
